<svg version="1.1" xmlns="http://www.w3.org/2000/svg" xmlns:xlink="http://www.w3.org/1999/xlink" x="0px" y="0px"
     role="none"
     viewBox="0 0 50 33.5" enable-background="new 0 0 50 33.5" xml:space="preserve">
<g>
	<polygon fill="#121212" points="0,0.073 16.664,11.189 50.167,11.189 50.167,0 0,0 	"/>
    <polygon fill="#FAFAFA" points="25.083,16.806 16.664,22.423 50.167,22.423 50.167,11.189 16.664,11.189 	"/>
    <polygon fill="#197B49" points="0,33.539 0,33.612 50.167,33.612 50.167,22.423 16.664,22.423 	"/>
    <path fill="#CE2931" d="M25.083,16.806l-8.42-5.617L0,0.073v33.466l16.664-11.116L25.083,16.806z M7.102,15.305l1.359,0.417
		l0.522-1.323l0.522,1.323l1.36-0.417l-0.709,1.232l1.174,0.804l-1.406,0.214l0.103,1.418L8.983,18.01l-1.044,0.965l0.104-1.418
		l-1.406-0.214l1.173-0.804L7.102,15.305z"/>
    <polygon fill="#FFFFFF" points="8.043,17.556 7.939,18.975 8.983,18.01 10.028,18.975 9.925,17.556 11.331,17.342 10.157,16.538
		10.866,15.305 9.506,15.722 8.983,14.398 8.461,15.722 7.102,15.305 7.81,16.538 6.637,17.342 	"/>
</g>
</svg>
