<svg version="1.1" role="none" xmlns="http://www.w3.org/2000/svg" xmlns:xlink="http://www.w3.org/1999/xlink" x="0px"
     y="0px"
     viewBox="0 0 50 33.5" style="enable-background:new 0 0 50 33.5;" xml:space="preserve">
	<g>
	<g>
		<rect x="25.3" y="2.6" style="fill:#FFFFFF;" width="24.7" height="2.6"/>
        <rect x="0.1" y="23.2" style="fill:#FFFFFF;" width="49.9" height="2.6"/>
        <polygon style="fill:#FFFFFF;" points="0.1,18 0.1,20.6 50,20.6 50,18 25.3,18 		"/>
        <rect x="25.3" y="12.9" style="fill:#FFFFFF;" width="24.7" height="2.6"/>
        <rect x="25.3" y="7.7" style="fill:#FFFFFF;" width="24.7" height="2.6"/>
        <rect x="0.1" y="28.3" style="fill:#FFFFFF;" width="49.9" height="2.6"/>
	</g>
        <g>
		<rect x="25.3" style="fill:#BF2033;" width="24.7" height="2.6"/>
            <rect x="25.3" y="5.1" style="fill:#BF2033;" width="24.7" height="2.6"/>
            <rect x="25.3" y="10.3" style="fill:#BF2033;" width="24.7" height="2.6"/>
            <rect x="25.3" y="15.4" style="fill:#BF2033;" width="24.7" height="2.6"/>
            <rect x="0.1" y="20.6" style="fill:#BF2033;" width="49.9" height="2.6"/>
            <rect x="0.1" y="25.7" style="fill:#BF2033;" width="49.9" height="2.6"/>
            <rect x="0.1" y="30.9" style="fill:#BF2033;" width="49.9" height="2.6"/>
	</g>
        <path style="fill:#213065 !important;" d="M25.3,15.4v-2.6v-2.6V7.7V5.1V2.6V0H0.1v18h25.2C25.3,18,25.3,15.4,25.3,15.4z M23.7,13.5L23.1,13l-0.6,0.4
		l0.2-0.7l-0.6-0.4h0.7l0.2-0.7l0.2,0.7h0.7l-0.6,0.4L23.7,13.5z M4.1,13.3L4.3,14h0.8l-0.6,0.4l0.2,0.7l-0.6-0.4l-0.6,0.4l0.2-0.7
		L3.2,14H4L4.1,13.3z M5.8,12.8l-0.6-0.4h0.7l0.2-0.7l0.2,0.7h0.8l-0.6,0.4l0.2,0.7L6.1,13l-0.6,0.4L5.8,12.8z M5.1,5.1h0.8l0.2-0.7
		l0.2,0.7H7L6.5,5.5l0.2,0.7L6.1,5.8L5.5,6.2l0.2-0.7L5.1,5.1z M9.3,5.1h0.8l0.2-0.7l0.2,0.7h0.7l-0.6,0.4l0.3,0.7l-0.6-0.4L9.8,6.2
		l0.2-0.7L9.3,5.1z M13.6,5.1h0.7l0.2-0.7l0.2,0.7h0.8l-0.6,0.4l0.2,0.7l-0.6-0.4l-0.6,0.4l0.2-0.7L13.6,5.1z M17.9,5.1h0.7l0.2-0.7
		L19,5.1h0.7l-0.6,0.4l0.2,0.7l-0.6-0.4l-0.6,0.4l0.2-0.7L17.9,5.1z M17.8,10.5l-0.6,0.4l0.2,0.7l-0.6-0.4l-0.6,0.4l0.2-0.7
		l-0.6-0.4h0.7l0.2-0.7l0.2,0.7H17.8z M17.5,15.2l-0.6-0.4l-0.6,0.4l0.2-0.7L15.8,14h0.7l0.2-0.7L17,14h0.7l-0.6,0.4L17.5,15.2z
		 M13.4,10.5l-0.6,0.4l0.2,0.7l-0.6-0.4l-0.5,0.5l0.2-0.7l-0.6-0.4h0.7l0.2-0.7l0.2,0.7h0.8V10.5z M13.3,15.2l-0.6-0.4l-0.7,0.4
		l0.2-0.7L11.6,14h0.7l0.2-0.7l0.2,0.7h0.7l-0.5,0.5L13.3,15.2z M11.6,7h0.7l0.2-0.7L12.8,7h0.7l-0.5,0.5l0.2,0.7l-0.6-0.4l-0.6,0.4
		l0.2-0.7L11.6,7z M15.3,10l-0.6-0.4L14.1,10l0.2-0.7l-0.6-0.4h0.7l0.2-0.7l0.2,0.7h0.7l-0.6,0.4L15.3,10z M10.4,8.1l0.2,0.7h0.7
		l-0.6,0.4l0.2,0.7l-0.6-0.4L9.8,10L10,9.3L9.4,8.8h0.7L10.4,8.1z M19.5,10l-0.6-0.4L18.3,10l0.2-0.7l-0.6-0.4h0.7l0.2-0.7L19,8.9
		h0.7l-0.6,0.4L19.5,10z M17.4,8.2l-0.6-0.4l-0.6,0.4l0.2-0.7L15.8,7h0.8l0.2-0.7L17,7h0.8l-0.6,0.4L17.4,8.2z M7.3,7h0.7l0.2-0.7
		L8.6,7h0.7L8.6,7.5l0.3,0.7L8.3,7.7L7.8,8.2l0.2-0.7L7.3,7z M6.3,8.1l0.2,0.7h0.7L6.5,9.3L6.8,10L6.3,9.5L5.5,10l0.2-0.7L5.3,8.8
		h0.7L6.3,8.1z M8.3,9.8l0.2,0.7h0.7l-0.6,0.4l0.4,0.8l-0.6-0.4l-0.6,0.4l0.2-0.8l-0.6-0.4h0.7L8.3,9.8z M8.9,15.2l-0.6-0.4
		l-0.6,0.4l0.2-0.7L7.3,14h0.8l0.2-0.7L8.6,14h0.7l-0.6,0.4L8.9,15.2z M10.1,12.8l-0.6-0.4h0.7l0.2-0.7l0.2,0.7h0.7l-0.6,0.4
		l0.2,0.7L10.4,13l-0.6,0.4L10.1,12.8z M14.3,12.8l-0.6-0.4h0.7l0.2-0.7l0.2,0.7h0.7l-0.5,0.4l0.2,0.7L14.6,13L14,13.4L14.3,12.8z
		 M18.5,12.8l-0.6-0.4h0.7l0.2-0.7l0.2,0.7h0.7l-0.6,0.4l0.2,0.7L18.9,13l-0.6,0.4L18.5,12.8z M21.7,15.2l-0.6-0.4l-0.6,0.4l0.2-0.7
		L20.1,14h0.7l0.2-0.7l0.2,0.7h0.7l-0.6,0.4L21.7,15.2z M22,10.5l-0.6,0.4l0.2,0.7L21,11.2l-0.6,0.4l0.2-0.7L20,10.5h0.7L21,9.8
		l0.2,0.7H22z M23.7,10l-0.6-0.4L22.5,10l0.2-0.7l-0.6-0.4h0.7L23,8.2l0.2,0.7h0.7l-0.6,0.4L23.7,10z M21.6,8.2L21,7.7l-0.6,0.4
		l0.2-0.7L20,7h0.8L21,6.3L21.3,7H22l-0.6,0.4L21.6,8.2z M23.7,6.2l-0.6-0.4l-0.6,0.4l0.2-0.7l-0.6-0.4h0.7L23,4.4l0.2,0.7h0.7
		l-0.6,0.4L23.7,6.2z M23.1,0.7l0.2,0.7H24l-0.6,0.4l0.2,0.7L23,2.1l-0.6,0.4l0.2-0.7L22,1.4h0.7L23.1,0.7z M21.2,3.3H22l-0.6,0.4
		l0.2,0.7L21,4l-0.6,0.4l0.2-0.7L20,3.3h0.8L21,2.5L21.2,3.3z M18.9,0.7l0.2,0.7h0.7l-0.6,0.4l0.2,0.7l-0.6-0.4l-0.6,0.4l0.2-0.7
		l-0.6-0.4h0.7L18.9,0.7z M17,3.3h0.7l-0.6,0.4l0.2,0.7L16.8,4l-0.6,0.4l0.2-0.7l-0.6-0.4h0.7l0.2-0.7L17,3.3z M14.6,0.7l0.2,0.7
		h0.8l-0.6,0.5l0.2,0.7l-0.6-0.4l-0.6,0.4l0.2-0.7l-0.6-0.4h0.7L14.6,0.7z M12.8,3.3h0.7l-0.6,0.4L13,4.4L12.4,4l-0.6,0.4L12,3.7
		l-0.6-0.4h0.7l0.2-0.7L12.8,3.3z M10.3,0.7l0.2,0.7h0.7l-0.6,0.4l0.3,0.8l-0.6-0.4L9.8,2.6l0.2-0.7L9.3,1.4h0.8L10.3,0.7z M8.4,3.3
		h0.7L8.6,3.7l0.2,0.7L8.3,4L7.6,4.4l0.2-0.7L7.3,3.3h0.7l0.2-0.7L8.4,3.3z M6.1,0.7l0.2,0.7H7L6.5,1.9l0.2,0.7L6.1,2.2L5.5,2.6
		l0.2-0.7L5.1,1.4h0.8L6.1,0.7z M4.3,3.3h0.7L4.4,3.7l0.2,0.7L4,4L3.5,4.4l0.2-0.7L3,3.3h0.8L4,2.6L4.3,3.3z M0.9,1.4h0.7L2,0.7
		l0.2,0.7H3L2.4,1.9l0.2,0.7L2,2.2L1.4,2.6l0.2-0.7L0.9,1.4z M0.9,5.1h0.7L2,4.4l0.2,0.7H3L2.4,5.5l0.2,0.7L2,5.8L1.4,6.2l0.2-0.7
		L0.9,5.1z M3.2,7h0.7L4,6.3L4.3,7H5L4.4,7.5l0.2,0.7L4,7.7L3.5,8.2l0.2-0.7L3.2,7z M2.5,10L2,9.5L1.4,10l0.2-0.7L1.1,8.8h0.7L2,8.1
		l0.2,0.7H3L2.4,9.3L2.5,10z M4,9.8l0.2,0.7h0.7l-0.6,0.4l0.2,0.7l-0.6-0.4l-0.6,0.4l0.2-0.7l-0.6-0.4h0.8L4,9.8z M0.9,12.3h0.7
		L2,11.6l0.2,0.7H3l-0.6,0.4l0.2,0.7L2,13l-0.6,0.4l0.2-0.7L0.9,12.3z M2.7,17L2,16.6L1.5,17l0.2-0.7l-0.6-0.4h0.7L2,15.2l0.2,0.7
		h0.7l-0.6,0.4L2.7,17z M6.8,17l-0.6-0.4L5.6,17l0.2-0.7l-0.6-0.4h0.7l0.2-0.7l0.2,0.7H7l-0.6,0.4L6.8,17z M11.1,17l-0.6-0.4L9.8,17
		l0.2-0.7l-0.6-0.4h0.7l0.2-0.7l0.2,0.7h0.7l-0.6,0.4L11.1,17z M15.3,17l-0.6-0.4L14.1,17l0.2-0.7l-0.6-0.4h0.8l0.2-0.7l0.2,0.7h0.7
		L15,16.3L15.3,17z M19.6,17L19,16.5L18.4,17l0.2-0.7L18,15.8h0.7l0.2-0.7l0.2,0.7H20l-0.6,0.4L19.6,17z M23.8,17l-0.6-0.4L22.6,17
		l0.2-0.7l-0.6-0.4H23l0.2-0.7l0.2,0.7h0.7l-0.6,0.4L23.8,17z"/>
        <g>
		<polygon style="fill:#FFFFFF;"
                 points="1.4,2.6 2,2.2 2.5,2.6 2.4,1.9 3,1.4 2.2,1.4 2,0.7 1.8,1.4 0.9,1.4 1.6,1.9 		"/>
            <polygon style="fill:#FFFFFF;"
                     points="5.5,2.6 6.1,2.2 6.8,2.6 6.5,1.9 7.1,1.4 6.3,1.4 6.1,0.7 5.9,1.4 5.1,1.4 5.8,1.9 		"/>
            <polygon style="fill:#FFFFFF;"
                     points="9.8,2.6 10.3,2.2 10.9,2.6 10.8,1.9 11.3,1.4 10.6,1.4 10.3,0.7 10.1,1.4 9.3,1.4 10.1,1.9 		"/>
            <polygon style="fill:#FFFFFF;"
                     points="13.9,2.6 14.6,2.2 15.3,2.6 14.9,1.9 15.6,1.4 14.8,1.4 14.6,0.7 14.3,1.4 13.6,1.4 14.3,1.9 		"/>
            <polygon style="fill:#FFFFFF;"
                     points="18.3,2.6 18.9,2.2 19.5,2.6 19.2,1.9 19.8,1.4 19.1,1.4 18.9,0.7 18.6,1.4 17.9,1.4 18.5,1.9 		"/>
            <polygon style="fill:#FFFFFF;"
                     points="22.5,2.6 23.1,2.2 23.7,2.6 23.5,1.9 24.1,1.4 23.3,1.4 23.1,0.7 22.9,1.4 22.1,1.4 22.7,1.9 		"/>
            <polygon style="fill:#FFFFFF;"
                     points="3.5,4.4 4,4 4.6,4.4 4.4,3.7 5,3.3 4.3,3.3 4,2.5 3.9,3.3 3,3.3 3.7,3.7 		"/>
            <polygon style="fill:#FFFFFF;"
                     points="7.6,4.4 8.3,4 8.8,4.4 8.6,3.7 9.3,3.3 8.4,3.3 8.3,2.5 8.1,3.3 7.3,3.3 7.8,3.7 		"/>
            <polygon style="fill:#FFFFFF;"
                     points="11.8,4.4 12.4,4 13.1,4.4 12.8,3.7 13.4,3.3 12.8,3.3 12.4,2.5 12.3,3.3 11.6,3.3 12.1,3.7 		"/>
            <polygon style="fill:#FFFFFF;"
                     points="16.1,4.4 16.8,4 17.4,4.4 17.1,3.7 17.7,3.3 17,3.3 16.8,2.5 16.5,3.3 15.8,3.3 16.4,3.7 		"/>
            <polygon style="fill:#FFFFFF;"
                     points="20.4,4.4 21,4 21.6,4.4 21.4,3.7 22,3.3 21.2,3.3 21,2.5 20.7,3.3 20,3.3 20.6,3.7 		"/>
            <polygon style="fill:#FFFFFF;"
                     points="1.4,6.2 2,5.8 2.5,6.2 2.4,5.5 3,5.1 2.2,5.1 2,4.4 1.8,5.1 0.9,5.1 1.6,5.5 		"/>
            <polygon style="fill:#FFFFFF;"
                     points="5.5,6.2 6.1,5.8 6.8,6.2 6.5,5.5 7.1,5.1 6.3,5.1 6.1,4.4 5.9,5.1 5.1,5.1 5.8,5.5 		"/>
            <polygon style="fill:#FFFFFF;"
                     points="9.8,6.2 10.3,5.8 10.9,6.2 10.8,5.5 11.3,5.1 10.6,5.1 10.3,4.4 10.1,5.1 9.3,5.1 10.1,5.5 		"/>
            <polygon style="fill:#FFFFFF;"
                     points="13.9,6.2 14.6,5.8 15.3,6.2 14.9,5.5 15.6,5.1 14.8,5.1 14.6,4.4 14.3,5.1 13.6,5.1 14.3,5.5 		"/>
            <polygon style="fill:#FFFFFF;"
                     points="18.3,6.2 18.9,5.8 19.5,6.2 19.2,5.5 19.8,5.1 19.1,5.1 18.9,4.4 18.6,5.1 17.9,5.1 18.5,5.5 		"/>
            <polygon style="fill:#FFFFFF;"
                     points="22.5,6.2 23.1,5.8 23.7,6.2 23.5,5.5 24.1,5.1 23.3,5.1 23.1,4.4 22.9,5.1 22.1,5.1 22.7,5.5 		"/>
            <polygon style="fill:#FFFFFF;"
                     points="4.3,7 4,6.3 3.9,7 3.2,7 3.8,7.5 3.5,8.2 4,7.7 4.8,8.2 4.4,7.5 5,7 		"/>
            <polygon style="fill:#FFFFFF;"
                     points="8.6,7 8.3,6.3 8.1,7 7.3,7 7.9,7.5 7.8,8.2 8.3,7.7 8.9,8.2 8.6,7.5 9.3,7 		"/>
            <polygon style="fill:#FFFFFF;"
                     points="12.8,7 12.6,6.3 12.3,7 11.6,7 12.1,7.5 11.9,8.2 12.6,7.7 13.1,8.2 12.9,7.5 13.6,7 		"/>
            <polygon style="fill:#FFFFFF;"
                     points="17,7 16.8,6.3 16.6,7 15.8,7 16.4,7.5 16.2,8.2 16.8,7.7 17.4,8.2 17.2,7.5 17.8,7 		"/>
            <polygon style="fill:#FFFFFF;"
                     points="21.3,7 21,6.3 20.8,7 20,7 20.7,7.5 20.4,8.2 21,7.7 21.6,8.2 21.4,7.5 22,7 		"/>
            <polygon style="fill:#FFFFFF;"
                     points="2.3,8.8 2,8.1 1.8,8.8 1.1,8.8 1.7,9.3 1.4,10 2,9.5 2.5,10 2.4,9.3 3,8.8 		"/>
            <polygon style="fill:#FFFFFF;"
                     points="6.4,8.8 6.3,8.1 5.9,8.8 5.3,8.8 5.8,9.3 5.5,10 6.3,9.5 6.8,10 6.5,9.3 7.1,8.8 		"/>
            <polygon style="fill:#FFFFFF;"
                     points="10.6,8.8 10.4,8.1 10.1,8.8 9.4,8.8 10.1,9.3 9.8,10 10.4,9.5 11.1,10 10.8,9.3 11.4,8.8 		"/>
            <polygon style="fill:#FFFFFF;"
                     points="14.8,8.8 14.6,8.1 14.4,8.8 13.6,8.8 14.3,9.3 14.1,10 14.6,9.5 15.3,10 15.1,9.3 15.6,8.8 		"/>
            <polygon style="fill:#FFFFFF;"
                     points="19.1,8.8 18.9,8.1 18.7,8.8 17.9,8.8 18.5,9.3 18.3,10 18.9,9.5 19.5,10 19.3,9.3 19.9,8.8 		"/>
            <polygon style="fill:#FFFFFF;"
                     points="23.4,8.8 23.1,8.1 22.9,8.8 22.2,8.8 22.8,9.3 22.5,10 23.1,9.5 23.7,10 23.5,9.3 24.1,8.8 		"/>
            <polygon style="fill:#FFFFFF;"
                     points="3.5,11.7 4,11.2 4.6,11.7 4.4,10.9 5,10.5 4.3,10.5 4,9.8 3.9,10.5 3,10.5 3.7,10.9 		"/>
            <polygon style="fill:#FFFFFF;"
                     points="7.6,11.7 8.3,11.2 8.9,11.7 8.6,10.9 9.3,10.5 8.6,10.5 8.3,9.8 8.1,10.5 7.3,10.5 7.9,10.9 		"/>
            <polygon style="fill:#FFFFFF;" points="11.9,11.7 12.6,11.2 13.1,11.7 12.8,10.9 13.4,10.5 12.8,10.5 12.6,9.8 12.3,10.5 11.6,10.5
			12.1,10.9 		"/>
            <polygon style="fill:#FFFFFF;" points="16.2,11.7 16.8,11.2 17.4,11.7 17.2,10.9 17.8,10.5 17,10.5 16.8,9.8 16.6,10.5 15.8,10.5 16.4,10.9
					"/>
            <polygon style="fill:#FFFFFF;"
                     points="20.4,11.7 21,11.2 21.6,11.7 21.4,10.9 22,10.5 21.2,10.5 21,9.8 20.8,10.5 20,10.5 20.6,10.9 		"/>
            <polygon style="fill:#FFFFFF;"
                     points="1.4,13.5 2,13 2.5,13.5 2.4,12.8 3,12.3 2.2,12.3 2,11.6 1.8,12.3 0.9,12.3 1.6,12.8 		"/>
            <polygon style="fill:#FFFFFF;"
                     points="5.5,13.5 6.1,13 6.8,13.5 6.5,12.8 7.1,12.3 6.4,12.3 6.1,11.6 5.9,12.3 5.3,12.3 5.8,12.8 		"/>
            <polygon style="fill:#FFFFFF;" points="9.8,13.5 10.4,13 11.1,13.5 10.8,12.8 11.3,12.3 10.6,12.3 10.4,11.6 10.1,12.3 9.4,12.3 10.1,12.8
					"/>
            <polygon style="fill:#FFFFFF;" points="14.1,13.5 14.6,13 15.3,13.5 14.9,12.8 15.6,12.3 14.8,12.3 14.6,11.6 14.3,12.3 13.6,12.3
			14.3,12.8 		"/>
            <polygon style="fill:#FFFFFF;" points="18.3,13.5 18.9,13 19.5,13.5 19.3,12.8 19.9,12.3 19.1,12.3 18.9,11.6 18.7,12.3 17.9,12.3
			18.5,12.8 		"/>
            <polygon style="fill:#FFFFFF;" points="22.5,13.5 23.1,13 23.7,13.5 23.5,12.8 24.1,12.3 23.3,12.3 23.1,11.6 22.9,12.3 22.1,12.3
			22.7,12.8 		"/>
            <polygon style="fill:#FFFFFF;"
                     points="4.3,14 4.1,13.3 4,14 3.2,14 3.8,14.5 3.5,15.2 4.1,14.7 4.8,15.2 4.5,14.5 5.1,14 		"/>
            <polygon style="fill:#FFFFFF;"
                     points="8.6,14 8.3,13.3 8.1,14 7.3,14 8.1,14.5 7.8,15.2 8.3,14.7 8.9,15.2 8.8,14.5 9.3,14 		"/>
            <polygon style="fill:#FFFFFF;"
                     points="12.8,14 12.6,13.3 12.3,14 11.6,14 12.3,14.5 11.9,15.2 12.6,14.7 13.3,15.2 12.9,14.5 13.6,14 		"/>
            <polygon style="fill:#FFFFFF;"
                     points="17.1,14 16.9,13.3 16.6,14 15.8,14 16.5,14.5 16.3,15.2 16.9,14.7 17.5,15.2 17.2,14.5 17.8,14 		"/>
            <polygon style="fill:#FFFFFF;"
                     points="21.3,14 21.1,13.3 20.9,14 20.1,14 20.7,14.5 20.5,15.2 21.1,14.7 21.7,15.2 21.5,14.5 22.1,14 		"/>
            <polygon style="fill:#FFFFFF;"
                     points="2.3,15.8 2,15.1 1.9,15.8 1.1,15.8 1.7,16.3 1.5,17 2,16.5 2.7,17 2.5,16.3 3,15.8 		"/>
            <polygon style="fill:#FFFFFF;"
                     points="6.4,15.8 6.3,15.1 6,15.8 5.3,15.8 5.8,16.3 5.6,17 6.3,16.5 6.8,17 6.6,16.3 7.3,15.8 		"/>
            <polygon style="fill:#FFFFFF;" points="10.8,15.8 10.4,15.1 10.3,15.8 9.6,15.8 10.1,16.3 9.8,17 10.4,16.5 11.1,17 10.8,16.3 11.4,15.8
			"/>
            <polygon style="fill:#FFFFFF;" points="14.9,15.8 14.8,15.1 14.4,15.8 13.8,15.8 14.3,16.3 14.1,17 14.8,16.5 15.3,17 15.1,16.3 15.6,15.8
					"/>
            <polygon style="fill:#FFFFFF;"
                     points="19.2,15.8 19,15.1 18.7,15.8 18,15.8 18.6,16.3 18.4,17 19,16.5 19.6,17 19.4,16.3 20,15.8 		"/>
            <polygon style="fill:#FFFFFF;" points="24.2,15.8 23.4,15.8 23.2,15.1 23,15.8 22.2,15.8 22.8,16.3 22.6,17 23.2,16.5 23.8,17 23.6,16.3
			"/>
	</g>
</g>
</svg>