<svg version="1.1" xmlns="http://www.w3.org/2000/svg" xmlns:xlink="http://www.w3.org/1999/xlink" x="0px" y="0px"
     viewBox="0 0 50 33.5" style="enable-background:new 0 0 50 33.5;" xml:space="preserve">
<g>
	<path style="fill:#FAFAFA;" d="M0,33.5h50V0H0V33.5z M25,6.7c5.6,0,10.1,4.5,10.1,10.1c0,5.6-4.5,10.1-10.1,10.1c-5.6,0-10.1-4.5-10.1-10.1
		C14.9,11.2,19.4,6.7,25,6.7z"/>
    <path style="fill:#BE262F;" d="M25,26.8c5.6,0,10.1-4.5,10.1-10.1c0-5.6-4.5-10.1-10.1-10.1c-5.6,0-10.1,4.5-10.1,10.1
		C14.9,22.3,19.4,26.8,25,26.8z"/>
</g>
</svg>
