<svg version="1.1" xmlns="http://www.w3.org/2000/svg" xmlns:xlink="http://www.w3.org/1999/xlink" x="0px" y="0px"
	 viewBox="0 0 1639 242" style="enable-background:new 0 0 1639 242;" xml:space="preserve">
<style type="text/css">
	.st0{fill:#136EF8;}
	.st1{fill:#60D0FF;}
	.st2{fill:#2D7FFF;}
	.st3{fill:#0047D8;}
</style>
<path class="st0" d="M163.6,241.6c-3.6,0-7.4,0-11.5,0c-28.1,0-56.8,0-81.4,0l81.9-220.5C157.7,8.4,169.8,0,183.1,0h54
	c11.2,0,18.8,11.6,14.6,22.2l-72.2,208c-0.1,0.3-0.2,0.5-0.3,0.8c-1.7,4.1-4.9,7.5-9,9.3c-0.4,0.2-0.8,0.3-1.3,0.5
	c-0.4,0.1-0.9,0.3-1.3,0.4c-0.2,0.1-0.4,0.1-0.7,0.2c-0.5,0.1-0.9,0.2-1.4,0.2L163.6,241.6z"/>
<path class="st1" d="M152.2,241.6c-28.1,0-56.8,0-81.4,0H58.4c-6-0.4-11.1-4.1-13.7-9.4l-1.1-2.9L1.1,103.1
	C-3,92.4,4.6,80.9,15.7,80.9h50.8c13.5,0,25.5,8.5,30.6,21.3L149,230.6c2.3,5.9,7.2,11.1,13.5,11.1L152.2,241.6L152.2,241.6z"/>
<path class="st2" d="M149,230.6c2.3,5.9,7.1,10.9,13.3,11.1h-10.1c-28.1,0-56.8,0-81.4,0l39.6-106.6L149,230.6z"/>
<path class="st3" d="M163.6,241.6h-1.5c-6-0.1-10.9-5.2-13.2-11.1l-38.6-95.6L128,87.4l26.6,133.8c0,0,1.1,15.7,14.2,19.5
	c-0.4,0.1-0.8,0.3-1.3,0.4c-0.2,0.1-0.5,0.1-0.7,0.2c-0.5,0.1-0.9,0.2-1.4,0.2L163.6,241.6z"/>
<g>
	<path class="st0" d="M351.1,242c-29.4,0-49.9-19.6-49.9-47.7c0-27.7,18.5-48.2,48.4-53.7l53.6-9.9l-0.1-1
		c-2.2-16.2-16.6-23.5-29.9-23.5c-20.9,0-34.3,14.8-37.4,18.7L310,98.3c3.7-4.8,27-32,66.5-32c40.7,0,70.3,28.2,70.3,66.9v105.2
		h-43.8v-20.9h-3.2l-0.3,0.4C399.2,218.2,382.3,242,351.1,242z M364.4,168.8c-12.2,2.2-19.5,9.1-19.5,18.5
		c0,11.6,7.9,18.5,21.4,18.5c21.2,0,36.6-16.5,36.6-39.4v-4.8L364.4,168.8z"/>
	<path class="st0" d="M549.5,241.8c-48.1,0-87.2-39.5-87.2-87.8c0-48.4,39.1-87.9,87.2-87.9c18.4,0,35.1,5.2,49.7,15.5l-18.7,37
		c-6.8-5.2-17.5-11.1-31-11.1c-24.7,0-43.4,19.9-43.4,46.4s18.7,46.4,43.4,46.4c13.5,0,24.1-5.8,31-11.1l18.7,37
		C584.6,236.6,567.9,241.8,549.5,241.8z"/>
	<path class="st0" d="M689.8,241.8c-48.1,0-87.2-39.5-87.2-87.8c0-48.4,39.1-87.9,87.2-87.9c18.4,0,35.1,5.2,49.7,15.5l-18.7,37
		c-6.8-5.2-17.5-11.1-31-11.1c-24.7,0-43.4,19.9-43.4,46.4s18.7,46.4,43.4,46.4c13.5,0,24.1-5.8,31-11.1l18.7,37
		C725,236.6,708.3,241.8,689.8,241.8z"/>
	<path class="st0" d="M831.9,241.8c-48.1,0-87.2-39.5-87.2-87.8c0-23.3,8.9-45.3,25.1-62c16.2-16.6,37.7-25.8,60.3-25.8
		c45.2,0,82.2,37.8,82.2,84.4c0,9.8-1.1,17.5-1.5,19.8H789.8l0.4,1.3c6.2,19.3,22.7,30.4,45,30.4c15.4,0,26.8-5.4,34-10.1l31.3,24.2
		C894.3,221.9,870.3,241.8,831.9,241.8z M828.5,105.9c-21,0-33.8,16.3-38.3,30.4l-0.4,1.3h77.4l-0.4-1.3
		C862.3,122.2,849.5,105.9,828.5,105.9z"/>
	<path class="st0" d="M1560.6,241.8c-48.1,0-87.2-39.5-87.2-87.8c0-23.3,8.9-45.3,25.1-62c16.2-16.6,37.7-25.8,60.3-25.8
		c45.2,0,82.2,37.8,82.2,84.4c0,9.8-1.1,17.5-1.5,19.8h-121.1l0.4,1.3c6.2,19.3,22.7,30.4,45,30.4c15.4,0,26.9-5.4,34.1-10.1
		l31.3,24.2C1623,221.9,1598.9,241.8,1560.6,241.8z M1557.2,105.9c-21,0-33.7,16.3-38.3,30.4l-0.4,1.3h77.4l-0.4-1.3
		C1591,122.2,1578.2,105.9,1557.2,105.9z"/>
	<path class="st0" d="M1219.6,241.6V66.1h43.7v175.5H1219.6z"/>
	<path class="st0" d="M1298,241.9c-3.9,0-7.1-3.3-7.1-7.3V7.3c0-4,3.2-7.3,7.1-7.3h70.9c22.3,0,41.5,6.5,55.3,18.9
		c12.9,11.6,20,27.4,20,44.5c0,37.2-31.3,49.5-31.6,49.6l-2.9,1.1l3,0.8c0.4,0.1,43.3,12.6,43.3,58.3c0,40.5-33.1,68.7-80.4,68.7
		H1298L1298,241.9z M1336.9,198.7h37.6c20.2,0,33.3-12.1,33.3-30.7s-13.1-30.7-33.3-30.7h-37.6V198.7z M1336.9,94.1h30.8
		c16.9,0,28.2-10.2,28.2-25.4s-11.4-25.4-28.2-25.4h-30.8V94.1z"/>
	<path class="st0" d="M992.3,241.8c-17,0-31.4-3.9-42.8-11.7c-10.6-7.1-16.5-16.3-19.7-23l36.4-16.6c4.1,9.6,13.7,15.2,26.1,15.2
		c12.3,0,19.9-5.7,19.9-15c0-8.5-5.5-13.9-16.5-16.1l-21.1-5.1c-29.4-6.5-45.4-23.8-45.4-48.8c0-30.6,26.6-54.5,60.6-54.5
		c17.6,0,32.3,4.3,43.4,13c10.3,7.8,15.3,17.5,17.7,24.5l-36.4,15.7c-1.4-5.4-6.4-17.4-24.3-17.4c-10.8,0-19.1,6.6-19.1,15
		c0,9.7,8.8,13.9,13.6,14.9l22.7,5.1c31,6.7,48.5,24.9,48,50C1055.4,213.3,1035.6,241.8,992.3,241.8z"/>
	<path class="st0" d="M1131,241.8c-17,0-31.4-3.9-42.8-11.7c-10.6-7.1-16.5-16.3-19.7-23l36.4-16.6c4.1,9.6,13.7,15.2,26.1,15.2
		c12.3,0,19.9-5.7,19.9-15c0-8.5-5.5-13.9-16.5-16.1l-21.1-5.1c-29.4-6.5-45.4-23.8-45.4-48.8c0-30.6,26.6-54.5,60.6-54.5
		c17.6,0,32.3,4.3,43.4,13c10.3,7.8,15.3,17.5,17.7,24.5l-36.4,15.7c-1.4-5.4-6.5-17.4-24.3-17.4c-10.8,0-19.1,6.6-19.1,15
		c0,9.7,8.8,13.9,13.6,14.9l22.7,5.1c31,6.7,48.5,24.9,48,50C1194.2,213.3,1174.5,241.8,1131,241.8z"/>
</g>
<path class="st0" d="M1215.1,28.2c0,13.2,11.4,24.3,25,24.3c13.7,0,25.3-11.1,25.3-24.3s-11.5-24.3-25-24.3
	C1226.7,3.9,1215.1,15,1215.1,28.2z"/>
</svg>
