<svg version="1.1" role="none" xmlns="http://www.w3.org/2000/svg" xmlns:xlink="http://www.w3.org/1999/xlink" x="0px"
     y="0px"
     viewBox="0 0 50 33.5" style="enable-background:new 0 0 50 33.5;" xml:space="preserve">
<style type="text/css">
	.acsb-l-pt0{fill:#ED2F31;}
	.acsb-l-pt1{fill:#156733;}
	.acsb-l-pt2{fill:none;stroke:#010101;stroke-width:0.5724;stroke-linecap:round;stroke-linejoin:round;}
	.acsb-l-pt3{fill:none;stroke:#010101;stroke-width:0.5741;stroke-linecap:round;stroke-linejoin:round;}
	.acsb-l-pt4{fill:#F6EB16;}
	.acsb-l-pt5{fill:none;stroke:#010101;stroke-width:0.5729;stroke-linecap:round;stroke-linejoin:round;}
	.acsb-l-pt6{fill:none;stroke:#010101;stroke-width:0.5732;stroke-linecap:round;stroke-linejoin:round;}
	.acsb-l-pt7{fill:none;stroke:#010101;stroke-width:0.5728;stroke-linecap:round;stroke-linejoin:round;}
	.acsb-l-pt8{fill:none;stroke:#010101;stroke-width:0.5499;stroke-linecap:round;stroke-linejoin:round;}
	.acsb-l-pt9{fill:none;stroke:#010101;stroke-width:0.573;stroke-linecap:round;stroke-linejoin:round;}
	.acsb-l-pt10{fill:#010101;}
	.acsb-l-pt11{fill:none;stroke:#ED2224;stroke-width:0.9373;stroke-linecap:round;stroke-linejoin:round;}
	.acsb-l-pt12{fill:#FFFFFF;}
	.acsb-l-pt13{fill:none;stroke:#010101;stroke-width:0.6704;}
	.acsb-l-pt14{fill:#ED2224;}
	.acsb-l-pt15{fill:none;stroke:#010101;stroke-width:0.5073;}
	.acsb-l-pt16{fill:#2B3187;}
	.acsb-l-pt17{fill:none;stroke:#010101;stroke-width:0.4994;}
	.acsb-l-pt18{fill:none;stroke:#010101;stroke-width:0.497;}
	.acsb-l-pt19{fill:none;stroke:#010101;stroke-width:0.499;}
	.acsb-l-pt20{fill:none;stroke:#010101;stroke-width:0.5003;}
	.acsb-l-pt21{fill:none;stroke:#010101;stroke-width:0.5002;}
	.acsb-l-pt22{fill:none;stroke:#010101;stroke-width:0.5013;}
	.acsb-l-pt23{fill:none;stroke:#010101;stroke-width:0.4622;}
	.acsb-l-pt24{fill:none;stroke:#010101;stroke-width:0.4958;}
	.acsb-l-pt25{fill:none;stroke:#010101;stroke-width:0.471;}
	.acsb-l-pt26{fill:none;stroke:#010101;stroke-width:0.4633;}
	.acsb-l-pt27{fill:none;stroke:#010101;stroke-width:0.4962;}
	.acsb-l-pt28{fill:none;stroke:#010101;stroke-width:0.4908;}
	.acsb-l-pt29{fill:none;stroke:#010101;stroke-width:0.5044;}
	.acsb-l-pt30{fill:none;stroke:#010101;stroke-width:0.5005;}
	.acsb-l-pt31{fill:none;stroke:#010101;stroke-width:0.4993;}
	.acsb-l-pt32{fill:none;stroke:#010101;stroke-width:0.5026;}
	.acsb-l-pt33{fill:none;stroke:#010101;stroke-width:0.4965;}
	.acsb-l-pt34{fill:none;stroke:#010101;stroke-width:0.5001;}
	.acsb-l-pt35{fill:none;stroke:#010101;stroke-width:0.4971;}
</style>
    <g>
	<rect x="19.9" y="0.1" class="acsb-l-pt0" width="30.1" height="33.5"/>
        <rect y="0.1" class="acsb-l-pt1" width="19.9" height="33.5"/>
        <g>
		<path class="acsb-l-pt2" d="M18.3,16.5v0.6V16.5z"/>
            <path class="acsb-l-pt3" d="M17.1,12.4l0.3,0.5L17.1,12.4z"/>
            <g>
			<path class="acsb-l-pt4"
                  d="M16.6,22.1C14,22,2.3,14.7,2.3,13.5l0.6-1.1C4.1,14.1,16,21.2,17.2,21L16.6,22.1L16.6,22.1z"/>
                <path class="acsb-l-pt4" d="M2.8,12.3c-0.2,0.6,3,2.6,7,5c3.9,2.4,7.3,3.9,7.6,3.7c0,0,0.1-0.2,0.1-0.2c0,0.1-0.2,0.1-0.3,0
				c-1.1-0.3-3.8-1.6-7.3-3.7c-3.4-2.1-6.4-4-6.9-4.8c0-0.1-0.1-0.2-0.1-0.2h0L2.8,12.3L2.8,12.3L2.8,12.3z M16.6,22.1
				c0,0.1-0.1,0.1-0.3,0.1c-1-0.1-3.8-1.5-7.3-3.6c-4-2.4-7.3-4.6-6.9-5.1l0.1-0.2l0,0c-0.3,1,6.5,4.9,6.9,5.1
				c3.9,2.4,7.3,3.9,7.6,3.5L16.6,22.1L16.6,22.1z"/>
                <path class="acsb-l-pt5" d="M2.8,12.3c-0.2,0.6,3,2.6,7,5c3.9,2.4,7.3,3.9,7.6,3.7c0,0,0.1-0.2,0.1-0.2c0,0.1-0.2,0.1-0.3,0
				c-1.1-0.3-3.8-1.6-7.3-3.7c-3.4-2.1-6.4-4-6.9-4.8c0-0.1-0.1-0.2-0.1-0.2l0,0L2.8,12.3L2.8,12.3L2.8,12.3z M16.6,22.1
				c0,0.1-0.1,0.1-0.3,0.1c-1-0.1-3.8-1.5-7.3-3.6c-4-2.4-7.3-4.6-6.9-5.1l0.1-0.2l0,0c-0.3,1,6.5,4.9,6.9,5.1
				c3.9,2.4,7.3,3.9,7.6,3.5L16.6,22.1L16.6,22.1z"/>
                <path class="acsb-l-pt4" d="M10,14.2c2.6,0,5.7-0.3,7.5-1.1l-0.4-0.6c-1.1,0.6-4.2,1-7.1,1c-3.4,0-5.9-0.4-7.1-1.2l-0.4,0.7
				C4.8,14,7,14.2,10,14.2L10,14.2z"/>
                <path class="acsb-l-pt4" d="M17.6,13.2c-0.1,0.1-1.2,0.5-3,0.8c-1.2,0.2-2.7,0.3-4.6,0.3c-1.8,0-3.3-0.1-4.4-0.3
				c-1.8-0.3-2.8-0.7-3.1-0.8c0-0.1,0.1-0.1,0.1-0.2c1,0.4,2,0.6,3.1,0.8c1.1,0.2,2.6,0.3,4.4,0.3c1.9,0,3.4-0.2,4.6-0.3
				c1.8-0.3,2.8-0.7,2.9-0.8L17.6,13.2L17.6,13.2z M17.3,12.5c-0.2,0.2-1.2,0.5-2.9,0.8c-1.1,0.2-2.6,0.3-4.4,0.3
				c-1.7,0-3.2-0.1-4.3-0.3c-1.7-0.2-2.6-0.6-3-0.7c0-0.1,0.1-0.1,0.1-0.2c0.3,0.1,1.1,0.5,2.9,0.7c1.1,0.2,2.5,0.3,4.2,0.3
				c1.8,0,3.3-0.2,4.4-0.3c1.7-0.2,2.6-0.7,2.8-0.8L17.3,12.5L17.3,12.5z"/>
                <path class="acsb-l-pt6" d="M17.6,13.2c-0.1,0.1-1.2,0.5-3,0.8c-1.2,0.2-2.7,0.3-4.6,0.3c-1.8,0-3.3-0.1-4.4-0.3
				c-1.8-0.3-2.8-0.7-3.1-0.8c0-0.1,0.1-0.1,0.1-0.2c1,0.4,2,0.6,3.1,0.8c1.1,0.2,2.6,0.3,4.4,0.3c1.9,0,3.4-0.2,4.6-0.3
				c1.8-0.3,2.8-0.7,2.9-0.8L17.6,13.2L17.6,13.2z M17.3,12.5c-0.2,0.2-1.2,0.5-2.9,0.8c-1.1,0.2-2.6,0.3-4.4,0.3
				c-1.7,0-3.2-0.1-4.3-0.3c-1.7-0.2-2.6-0.6-3-0.7c0-0.1,0.1-0.1,0.1-0.2c0.3,0.1,1.1,0.5,2.9,0.7c1.1,0.2,2.5,0.3,4.2,0.3
				c1.8,0,3.3-0.2,4.4-0.3c1.7-0.2,2.6-0.7,2.8-0.8L17.3,12.5L17.3,12.5z"/>
                <path class="acsb-l-pt4" d="M1.6,17.3c1.6,0.8,5.1,1.3,8.4,1.3c3,0,6.9-0.5,8.4-1.2l0-0.8c-0.5,0.7-4.6,1.4-8.4,1.4
				c-3.7,0-7.2-0.6-8.3-1.3L1.6,17.3L1.6,17.3z"/>
                <path class="acsb-l-pt4" d="M18.4,17.2v0.2c-0.2,0.3-1.6,0.7-3.3,0.9c-1.3,0.2-3,0.4-5.2,0.4c-2,0-3.7-0.1-4.9-0.3
				c-2-0.3-3.3-0.8-3.5-0.9l0-0.2c0.8,0.5,2.8,0.9,3.5,1c1.2,0.2,2.9,0.3,4.9,0.3c2.1,0,3.8-0.2,5.1-0.4
				C16.3,18,18.1,17.5,18.4,17.2L18.4,17.2z M18.4,16.5v0.2c-0.2,0.3-1.6,0.7-3.3,0.9c-1.3,0.2-3,0.4-5.2,0.4c-2,0-3.6-0.1-4.9-0.3
				c-2-0.3-3.3-0.8-3.5-0.9l0-0.2c0.8,0.5,2.8,0.9,3.5,1c1.2,0.2,2.9,0.3,4.9,0.3c2.1,0,3.8-0.2,5.1-0.4
				C16.3,17.2,18.1,16.8,18.4,16.5L18.4,16.5z"/>
                <path class="acsb-l-pt7" d="M18.4,17.2v0.2c-0.2,0.3-1.6,0.7-3.3,0.9c-1.3,0.2-3,0.4-5.2,0.4c-2,0-3.7-0.1-4.9-0.3
				c-2-0.3-3.3-0.8-3.5-0.9l0-0.2c0.8,0.5,2.8,0.9,3.5,1c1.2,0.2,2.9,0.3,4.9,0.3c2.1,0,3.8-0.2,5.1-0.4
				C16.3,18,18.1,17.5,18.4,17.2L18.4,17.2z M18.4,16.5v0.2c-0.2,0.3-1.6,0.7-3.3,0.9c-1.3,0.2-3,0.4-5.2,0.4c-2,0-3.6-0.1-4.9-0.3
				c-2-0.3-3.3-0.8-3.5-0.9l0-0.2c0.8,0.5,2.8,0.9,3.5,1c1.2,0.2,2.9,0.3,4.9,0.3c2.1,0,3.8-0.2,5.1-0.4
				C16.3,17.2,18.1,16.8,18.4,16.5L18.4,16.5z"/>
                <path class="acsb-l-pt4" d="M10,21.9c-3.6,0-6.7-1-7.4-1.1l0.5,0.7c1.2,0.5,4.2,1.2,6.9,1.1c2.7-0.1,5.1-0.3,6.8-1.1l0.5-0.8
				C16.2,21.3,12.2,21.9,10,21.9L10,21.9z"/>
                <path class="acsb-l-pt4" d="M17,21.4c-0.1,0.1-0.1,0.2-0.2,0.3c-0.8,0.3-2.1,0.6-2.6,0.7c-1.1,0.2-2.8,0.4-4.2,0.4c-3.2,0-5.8-0.7-7-1.2
				l-0.1-0.2l0,0L3,21.4c2.2,0.8,4.6,1.1,7,1.2c1.5,0,3-0.2,4.2-0.4C16,21.8,16.7,21.5,17,21.4L17,21.4L17,21.4z M17.4,20.7
				C17.4,20.7,17.4,20.7,17.4,20.7c0,0.1-0.1,0.2-0.2,0.3c-0.4,0.2-1.6,0.5-3.3,0.7c-1.1,0.2-1.8,0.3-4,0.3
				c-4.1-0.1-6.8-0.9-7.4-1.1l-0.1-0.2c2.4,0.6,4.8,1.1,7.5,1.1c2,0,2.9-0.2,4-0.3c2-0.3,3-0.6,3.3-0.7c0,0,0,0,0,0L17.4,20.7
				L17.4,20.7z"/>
                <path class="acsb-l-pt8" d="M17,21.4c-0.1,0.1-0.1,0.2-0.2,0.3c-0.8,0.3-2.1,0.6-2.6,0.7c-1.1,0.2-2.8,0.4-4.2,0.4c-3.2,0-5.8-0.7-7-1.2
				l-0.1-0.2l0,0L3,21.4c2.2,0.8,4.6,1.1,7,1.2c1.5,0,3-0.2,4.2-0.4C16,21.8,16.7,21.5,17,21.4L17,21.4L17,21.4z M17.4,20.7
				C17.4,20.7,17.4,20.7,17.4,20.7c0,0.1-0.1,0.2-0.2,0.3c-0.4,0.2-1.6,0.5-3.3,0.7c-1.1,0.2-1.8,0.3-4,0.3
				c-4.1-0.1-6.8-0.9-7.4-1.1l-0.1-0.2c2.4,0.6,4.8,1.1,7.5,1.1c2,0,2.9-0.2,4-0.3c2-0.3,3-0.6,3.2-0.7c0,0,0,0,0,0L17.4,20.7
				L17.4,20.7z"/>
                <path class="acsb-l-pt4" d="M10,9.3c4.1,0,7.5,3.4,7.5,7.5s-3.3,7.5-7.5,7.5c-4.1,0-7.5-3.4-7.5-7.5S5.8,9.3,10,9.3L10,9.3z M10,8.6
				c4.5,0,8.2,3.7,8.2,8.2c0,4.5-3.7,8.2-8.2,8.2c-4.5,0-8.2-3.7-8.2-8.2C1.7,12.3,5.4,8.6,10,8.6L10,8.6z"/>
                <path class="acsb-l-pt4" d="M10,8.5c4.6,0,8.4,3.8,8.4,8.4s-3.8,8.4-8.4,8.4c-4.6,0-8.4-3.8-8.4-8.4S5.4,8.5,10,8.5z M10,8.7
				c4.5,0,8.2,3.7,8.2,8.2c0,4.5-3.7,8.2-8.2,8.2c-4.5,0-8.2-3.7-8.2-8.2C1.8,12.3,5.5,8.7,10,8.7L10,8.7z"/>
                <path class="acsb-l-pt7" d="M10,8.5c4.6,0,8.4,3.8,8.4,8.4c0,4.6-3.8,8.4-8.4,8.4c-4.6,0-8.4-3.8-8.4-8.4C1.6,12.2,5.4,8.5,10,8.5z
				 M10,8.7c4.5,0,8.2,3.7,8.2,8.2c0,4.5-3.7,8.2-8.2,8.2c-4.5,0-8.2-3.7-8.2-8.2C1.8,12.3,5.5,8.7,10,8.7z"/>
                <path class="acsb-l-pt4" d="M10,9.2c4.2,0,7.7,3.4,7.7,7.7c0,4.2-3.5,7.7-7.7,7.7c-4.2,0-7.7-3.4-7.7-7.7C2.3,12.6,5.8,9.2,10,9.2z
				 M10,9.4c4.1,0,7.5,3.4,7.5,7.5c0,4.1-3.4,7.5-7.5,7.5c-4.1,0-7.5-3.4-7.5-7.5C2.5,12.7,5.9,9.4,10,9.4L10,9.4z"/>
                <path class="acsb-l-pt7" d="M10,9.2c4.2,0,7.7,3.4,7.7,7.7c0,4.2-3.5,7.7-7.7,7.7c-4.2,0-7.7-3.4-7.7-7.7C2.3,12.6,5.8,9.2,10,9.2z
				 M10,9.4c4.1,0,7.5,3.4,7.5,7.5c0,4.1-3.4,7.5-7.5,7.5c-4.1,0-7.5-3.4-7.5-7.5C2.5,12.7,5.9,9.4,10,9.4z"/>
                <rect x="9.6" y="8.4" class="acsb-l-pt4" width="0.7" height="16.8"/>
                <path class="acsb-l-pt7" d="M9.7,8.5h0.5H9.7z"/>
                <path class="acsb-l-pt7" d="M9.7,25.2h0.5H9.7z"/>
                <path class="acsb-l-pt4"
                      d="M10.2,8.4h0.2l0,17h-0.2L10.2,8.4L10.2,8.4z M9.5,8.4h0.2l0,17H9.5V8.4L9.5,8.4z"/>
                <path class="acsb-l-pt9"
                      d="M10.2,8.4h0.2l0,17h-0.2L10.2,8.4L10.2,8.4z M9.5,8.4h0.2l0,17H9.5V8.4L9.5,8.4z"/>
                <path class="acsb-l-pt4" d="M1.6,16.5c1-1,4.9-1.6,8.3-1.6c3.4,0,7.5,0.7,8.4,1.6l0,0.7c-0.7-0.7-3.9-1.5-8.4-1.5
				c-4.5,0-7.7,0.8-8.3,1.6V16.5L1.6,16.5z"/>
                <path class="acsb-l-pt2" d="M1.6,16.5v0.6V16.5z"/>
                <path class="acsb-l-pt4" d="M10,15.5c2,0,3.9,0.2,5.4,0.5c1.6,0.3,2.7,0.7,3,1.1l0,0.2c-0.5-0.5-1.9-0.9-3.1-1.2
				c-1.5-0.3-3.4-0.5-5.4-0.5c-2.1,0-4,0.2-5.5,0.5c-1.2,0.2-2.8,0.7-3,1.2v-0.2c0.1-0.3,1.3-0.8,3-1.1C6,15.7,7.9,15.5,10,15.5
				L10,15.5z M10,14.8c2,0,3.9,0.2,5.4,0.5c1.6,0.3,2.7,0.7,3,1.1l0,0.2c-0.5-0.5-1.9-0.9-3.1-1.2C13.8,15.2,11.9,15,10,15
				c-2.1,0-4,0.2-5.5,0.5c-1.1,0.2-2.8,0.7-3,1.2v-0.2c0.1-0.3,1.3-0.8,3-1.1C6,15,7.9,14.8,10,14.8L10,14.8z"/>
                <path class="acsb-l-pt7" d="M10,15.5c2,0,3.9,0.2,5.4,0.5c1.6,0.3,2.7,0.7,3,1.1l0,0.2c-0.5-0.5-1.9-0.9-3.1-1.2
				c-1.5-0.3-3.4-0.5-5.4-0.5c-2.1,0-4,0.2-5.5,0.5c-1.2,0.2-2.8,0.7-3,1.2v-0.2c0.1-0.3,1.3-0.8,3-1.1C6,15.7,7.9,15.5,10,15.5z
				 M10,14.8c2,0,3.9,0.2,5.4,0.5c1.6,0.3,2.7,0.7,3,1.1l0,0.2c-0.5-0.5-1.9-0.9-3.1-1.2C13.8,15.2,11.9,15,10,15
				c-2.1,0-4,0.2-5.5,0.5c-1.1,0.2-2.8,0.7-3,1.2v-0.2c0.1-0.3,1.3-0.8,3-1.1C6,15,7.9,14.8,10,14.8z"/>
                <path class="acsb-l-pt4" d="M9.9,11.2c3.1,0,5.8,0.4,7.1,1.1l0.5,0.8c-1.1-0.6-4-1.2-7.5-1.1c-2.9,0-5.9,0.3-7.4,1.1L3,12.2
				C4.3,11.5,7.3,11.2,9.9,11.2L9.9,11.2z"/>
                <path class="acsb-l-pt4" d="M10,11.8c1.8,0,3.5,0.1,4.8,0.3c1.3,0.2,2.5,0.6,2.7,0.8l0.1,0.2c-0.4-0.3-1.5-0.6-2.8-0.8
				C13.4,12.1,11.7,12,10,12c-2,0-3.6,0.1-4.9,0.3c-1.4,0.3-2.4,0.6-2.6,0.8l0.1-0.3C3,12.7,3.8,12.4,5,12.2
				C6.4,11.9,8,11.8,10,11.8L10,11.8z M10,11.1c1.7,0,3.4,0.1,4.7,0.3c1,0.2,2,0.5,2.4,0.8l0.2,0.3c-0.3-0.4-1.6-0.7-2.7-0.9
				c-1.3-0.2-2.9-0.3-4.6-0.3c-1.8,0-3.4,0.1-4.7,0.3c-1.2,0.2-2,0.5-2.3,0.7l0.2-0.3c0.5-0.2,1.2-0.5,2.1-0.6
				C6.5,11.2,8.2,11.1,10,11.1L10,11.1z"/>
                <path class="acsb-l-pt6" d="M10,11.8c1.8,0,3.5,0.1,4.8,0.3c1.3,0.2,2.5,0.6,2.7,0.8l0.1,0.2c-0.4-0.3-1.5-0.6-2.8-0.8
				C13.4,12.1,11.7,12,10,12c-2,0-3.6,0.1-4.9,0.3c-1.4,0.3-2.4,0.6-2.6,0.8l0.1-0.3C3,12.7,3.8,12.4,5,12.2
				C6.4,11.9,8,11.8,10,11.8L10,11.8z M10,11.1c1.7,0,3.4,0.1,4.7,0.3c1,0.2,2,0.5,2.4,0.8l0.2,0.3c-0.3-0.4-1.6-0.7-2.7-0.9
				c-1.3-0.2-2.9-0.3-4.6-0.3c-1.8,0-3.4,0.1-4.7,0.3c-1.2,0.2-2,0.5-2.3,0.7l0.2-0.3c0.5-0.2,1.2-0.5,2.1-0.6
				C6.5,11.2,8.2,11.1,10,11.1z"/>
                <path class="acsb-l-pt4" d="M14.1,20.3C12.6,20,11,20,10,20c-5.2,0.1-6.9,1.1-7.1,1.4l-0.4-0.6c1.3-1,4.1-1.5,7.5-1.4
				c1.7,0,3.2,0.1,4.5,0.4L14.1,20.3L14.1,20.3z"/>
                <path class="acsb-l-pt7" d="M2.6,20.8l0.3,0.4L2.6,20.8z"/>
                <path class="acsb-l-pt4" d="M9.9,19.9c1.4,0,2.9,0.1,4.2,0.3l-0.1,0.2c-1.3-0.2-2.6-0.3-4.1-0.3c-1.9,0-3.8,0.2-5.5,0.6
				c-0.5,0.1-1.4,0.5-1.5,0.8l-0.1-0.2c0-0.2,0.6-0.5,1.6-0.8C6.3,20,8.1,19.9,9.9,19.9L9.9,19.9z M10,19.2c1.5,0,3,0.1,4.5,0.4
				l-0.1,0.2c-1.4-0.3-2.6-0.4-4.4-0.4c-1.9,0-4,0.1-5.8,0.7c-0.6,0.2-1.6,0.5-1.7,0.8l-0.1-0.2c0-0.3,0.9-0.6,1.7-0.9
				C6,19.3,8.1,19.2,10,19.2L10,19.2z"/>
                <path class="acsb-l-pt8" d="M9.9,19.9c1.4,0,2.9,0.1,4.2,0.3l-0.1,0.2c-1.3-0.2-2.6-0.3-4.1-0.3c-1.9,0-3.8,0.2-5.5,0.6
				c-0.5,0.1-1.4,0.5-1.5,0.8l-0.1-0.2c0-0.2,0.6-0.5,1.6-0.8C6.3,20,8.1,19.9,9.9,19.9L9.9,19.9z M10,19.2c1.5,0,3,0.1,4.5,0.4
				l-0.1,0.2c-1.4-0.3-2.6-0.4-4.4-0.4c-1.9,0-4,0.1-5.8,0.7c-0.6,0.2-1.6,0.5-1.7,0.8l-0.1-0.2c0-0.3,0.9-0.6,1.7-0.9
				C6,19.3,8.1,19.2,10,19.2z"/>
                <path class="acsb-l-pt10" d="M8.5,19.7C8.5,19.7,8.5,19.6,8.5,19.7C8.5,19.6,8.5,19.6,8.5,19.7c0.1-0.1,0.1-0.1,0.1-0.1c0,0,0,0,0,0
				c0,0,0,0,0,0c0,0,0,0,0,0c0,0,0,0,0,0C8.6,19.8,8.5,19.8,8.5,19.7C8.5,19.8,8.5,19.8,8.5,19.7C8.5,19.7,8.5,19.7,8.5,19.7
				C8.5,19.7,8.5,19.7,8.5,19.7L8.5,19.7z M8.5,19.7C8.5,19.7,8.5,19.7,8.5,19.7C8.5,19.7,8.5,19.7,8.5,19.7
				C8.5,19.7,8.6,19.7,8.5,19.7c0.1,0,0.1,0,0.1,0c0,0,0,0,0,0C8.6,19.6,8.6,19.6,8.5,19.7C8.6,19.6,8.5,19.6,8.5,19.7
				C8.5,19.6,8.5,19.6,8.5,19.7C8.5,19.6,8.5,19.7,8.5,19.7L8.5,19.7z M8.7,19.7L8.7,19.7C8.7,19.7,8.7,19.7,8.7,19.7
				C8.7,19.7,8.7,19.7,8.7,19.7C8.7,19.7,8.7,19.7,8.7,19.7C8.7,19.7,8.7,19.7,8.7,19.7C8.8,19.7,8.7,19.7,8.7,19.7
				C8.7,19.7,8.7,19.7,8.7,19.7C8.7,19.7,8.7,19.7,8.7,19.7C8.7,19.7,8.7,19.7,8.7,19.7C8.7,19.7,8.7,19.7,8.7,19.7
				C8.7,19.7,8.7,19.7,8.7,19.7C8.7,19.6,8.7,19.6,8.7,19.7C8.7,19.6,8.7,19.6,8.7,19.7C8.7,19.6,8.7,19.6,8.7,19.7
				C8.7,19.6,8.7,19.6,8.7,19.7C8.8,19.6,8.8,19.6,8.7,19.7C8.8,19.6,8.8,19.6,8.7,19.7L8.7,19.7C8.8,19.7,8.8,19.6,8.7,19.7
				C8.7,19.6,8.7,19.6,8.7,19.7C8.7,19.6,8.7,19.6,8.7,19.7C8.7,19.7,8.7,19.7,8.7,19.7C8.7,19.7,8.7,19.7,8.7,19.7
				C8.7,19.7,8.7,19.7,8.7,19.7C8.7,19.7,8.7,19.7,8.7,19.7C8.7,19.7,8.8,19.7,8.7,19.7C8.8,19.7,8.8,19.7,8.7,19.7
				C8.8,19.7,8.8,19.7,8.7,19.7C8.8,19.7,8.8,19.7,8.7,19.7C8.8,19.7,8.8,19.7,8.7,19.7C8.7,19.7,8.7,19.7,8.7,19.7
				C8.7,19.7,8.7,19.7,8.7,19.7C8.7,19.7,8.7,19.7,8.7,19.7L8.7,19.7z M8.9,19.7L8.9,19.7C8.9,19.7,8.9,19.7,8.9,19.7
				C8.9,19.7,8.8,19.7,8.9,19.7C8.8,19.7,8.8,19.7,8.9,19.7C8.8,19.7,8.8,19.7,8.9,19.7C8.8,19.7,8.8,19.6,8.9,19.7
				C8.8,19.6,8.8,19.6,8.9,19.7C8.9,19.6,8.9,19.6,8.9,19.7C8.9,19.6,8.9,19.7,8.9,19.7C8.9,19.7,8.9,19.7,8.9,19.7L8.9,19.7
				C8.8,19.7,8.8,19.7,8.9,19.7C8.8,19.7,8.8,19.7,8.9,19.7C8.8,19.7,8.8,19.7,8.9,19.7C8.9,19.7,8.9,19.7,8.9,19.7L8.9,19.7z
				 M8.8,19.7L8.8,19.7C8.9,19.7,8.9,19.6,8.8,19.7C8.9,19.6,8.9,19.6,8.8,19.7C8.8,19.6,8.8,19.6,8.8,19.7
				C8.8,19.7,8.8,19.7,8.8,19.7L8.8,19.7z M8.9,19.7L8.9,19.7C8.9,19.7,8.9,19.7,8.9,19.7C8.9,19.8,8.9,19.8,8.9,19.7
				C9,19.8,9,19.8,8.9,19.7C9,19.7,9,19.7,8.9,19.7C9,19.7,9,19.7,8.9,19.7C9,19.7,9,19.7,8.9,19.7C8.9,19.7,8.9,19.7,8.9,19.7
				C8.9,19.7,8.9,19.7,8.9,19.7C8.9,19.7,8.9,19.7,8.9,19.7c0-0.1,0-0.1,0-0.1c0,0,0,0,0,0c0,0,0,0,0,0l0,0l0,0L8.9,19.7
				C9,19.7,9,19.7,8.9,19.7C9,19.8,9,19.8,8.9,19.7C9,19.8,9,19.8,8.9,19.7C8.9,19.8,8.9,19.8,8.9,19.7C8.9,19.8,8.9,19.8,8.9,19.7
				L8.9,19.7z M8.9,19.7C8.9,19.7,8.9,19.7,8.9,19.7C8.9,19.7,8.9,19.7,8.9,19.7C9,19.7,9,19.7,8.9,19.7C9,19.7,9,19.7,8.9,19.7
				C9,19.7,9,19.6,8.9,19.7C9,19.6,9,19.6,8.9,19.7C9,19.6,8.9,19.6,8.9,19.7C8.9,19.6,8.9,19.7,8.9,19.7L8.9,19.7z M9,19.7l0-0.1h0
				L9,19.7c0-0.1,0-0.1,0-0.1c0,0,0,0,0,0c0,0,0,0,0,0C9.1,19.6,9.1,19.6,9,19.7c0.1-0.1,0.1-0.1,0.1-0.1c0,0,0,0,0,0c0,0,0,0,0,0
				l0,0.1l0,0l0-0.1c0,0,0,0,0,0c0,0,0,0,0,0c0,0,0,0,0,0c0,0,0,0,0,0C9.1,19.6,9.1,19.6,9,19.7L9,19.7L9,19.7L9,19.7
				C9.1,19.6,9.1,19.6,9,19.7c0.1-0.1,0.1-0.1,0.1-0.1C9.1,19.6,9.1,19.6,9,19.7C9.1,19.6,9.1,19.6,9,19.7C9.1,19.6,9.1,19.7,9,19.7
				L9,19.7L9,19.7L9,19.7z M9.3,19.7L9.3,19.7C9.3,19.7,9.3,19.7,9.3,19.7C9.3,19.7,9.3,19.7,9.3,19.7C9.2,19.7,9.2,19.7,9.3,19.7
				C9.2,19.7,9.2,19.7,9.3,19.7C9.2,19.6,9.2,19.6,9.3,19.7C9.2,19.6,9.2,19.6,9.3,19.7C9.3,19.6,9.3,19.6,9.3,19.7
				C9.3,19.6,9.3,19.6,9.3,19.7C9.3,19.7,9.3,19.7,9.3,19.7L9.3,19.7C9.2,19.7,9.2,19.7,9.3,19.7C9.2,19.7,9.2,19.7,9.3,19.7
				C9.3,19.7,9.3,19.7,9.3,19.7C9.3,19.7,9.3,19.7,9.3,19.7L9.3,19.7z M9.2,19.6L9.2,19.6C9.3,19.6,9.3,19.6,9.2,19.6
				C9.3,19.6,9.3,19.6,9.2,19.6C9.3,19.6,9.2,19.6,9.2,19.6C9.2,19.6,9.2,19.6,9.2,19.6L9.2,19.6z M9.3,19.7l0-0.1l0,0L9.3,19.7
				c0-0.1,0.1-0.1,0.1-0.1c0,0,0,0,0,0c0,0,0,0,0,0C9.4,19.6,9.4,19.6,9.3,19.7C9.4,19.6,9.4,19.6,9.3,19.7L9.3,19.7L9.3,19.7
				L9.3,19.7C9.4,19.6,9.4,19.6,9.3,19.7C9.4,19.6,9.4,19.6,9.3,19.7c0.1-0.1,0.1-0.1,0.1-0.1C9.4,19.6,9.4,19.6,9.3,19.7
				C9.4,19.6,9.3,19.6,9.3,19.7L9.3,19.7L9.3,19.7L9.3,19.7z M9.5,19.7L9.5,19.7C9.5,19.7,9.5,19.7,9.5,19.7
				C9.5,19.7,9.5,19.7,9.5,19.7C9.4,19.7,9.4,19.7,9.5,19.7C9.4,19.7,9.4,19.7,9.5,19.7L9.5,19.7L9.5,19.7L9.5,19.7L9.5,19.7l0-0.1
				l0,0L9.5,19.7L9.5,19.7L9.5,19.7L9.5,19.7L9.5,19.7C9.5,19.7,9.5,19.7,9.5,19.7C9.5,19.7,9.5,19.7,9.5,19.7
				C9.5,19.7,9.5,19.7,9.5,19.7C9.5,19.7,9.5,19.7,9.5,19.7L9.5,19.7z M9.5,19.6C9.5,19.6,9.5,19.6,9.5,19.6
				C9.5,19.6,9.5,19.6,9.5,19.6C9.6,19.6,9.6,19.6,9.5,19.6c0.1,0,0.1,0,0.1,0C9.6,19.7,9.6,19.7,9.5,19.6
				C9.6,19.7,9.6,19.7,9.5,19.6C9.6,19.7,9.5,19.7,9.5,19.6C9.5,19.7,9.5,19.7,9.5,19.6C9.5,19.7,9.5,19.7,9.5,19.6L9.5,19.6z
				 M9.5,19.6C9.5,19.7,9.5,19.7,9.5,19.6C9.5,19.7,9.5,19.7,9.5,19.6C9.6,19.7,9.6,19.7,9.5,19.6C9.6,19.7,9.6,19.7,9.5,19.6
				C9.6,19.6,9.6,19.6,9.5,19.6C9.6,19.6,9.6,19.6,9.5,19.6C9.5,19.6,9.5,19.6,9.5,19.6C9.5,19.6,9.5,19.6,9.5,19.6L9.5,19.6z
				 M9.8,19.7L9.8,19.7C9.8,19.7,9.8,19.7,9.8,19.7C9.7,19.7,9.7,19.7,9.8,19.7C9.7,19.7,9.7,19.7,9.8,19.7
				C9.7,19.7,9.7,19.7,9.8,19.7C9.7,19.6,9.7,19.6,9.8,19.7C9.7,19.6,9.7,19.6,9.8,19.7C9.7,19.6,9.8,19.6,9.8,19.7
				C9.8,19.6,9.8,19.6,9.8,19.7C9.8,19.6,9.8,19.6,9.8,19.7L9.8,19.7C9.7,19.7,9.7,19.7,9.8,19.7C9.7,19.7,9.7,19.7,9.8,19.7
				C9.7,19.7,9.7,19.7,9.8,19.7C9.7,19.7,9.7,19.7,9.8,19.7z M9.7,19.6L9.7,19.6C9.8,19.6,9.8,19.6,9.7,19.6
				C9.7,19.6,9.7,19.6,9.7,19.6C9.7,19.6,9.7,19.6,9.7,19.6C9.7,19.6,9.7,19.6,9.7,19.6z M9.8,19.7l0-0.2h0L9.8,19.7L9.8,19.7
				L9.8,19.7z M9.9,19.6L9.9,19.6L9.9,19.6L9.9,19.6L9.9,19.6L9.9,19.6z M9.8,19.7l0-0.1h0L9.8,19.7L9.8,19.7L9.8,19.7z M9.9,19.7
				l0-0.1h0L9.9,19.7c0-0.1,0-0.1,0-0.1c0,0,0,0,0,0c0,0,0,0,0,0C10,19.6,10,19.6,9.9,19.7c0.1-0.1,0.1-0.1,0.1-0.1c0,0,0,0,0,0
				c0,0,0,0,0,0l0,0.1h0l0-0.1c0,0,0,0,0,0c0,0,0,0,0,0c0,0,0,0,0,0c0,0,0,0,0,0C10,19.6,10,19.6,9.9,19.7L9.9,19.7L9.9,19.7
				L9.9,19.7C10,19.6,10,19.6,9.9,19.7C10,19.6,9.9,19.6,9.9,19.7C9.9,19.6,9.9,19.6,9.9,19.7C9.9,19.6,9.9,19.6,9.9,19.7
				C9.9,19.6,9.9,19.6,9.9,19.7L9.9,19.7L9.9,19.7L9.9,19.7z M10.1,19.6L10.1,19.6L10.1,19.6L10.1,19.6L10.1,19.6L10.1,19.6z
				 M10.1,19.7l0-0.1h0L10.1,19.7L10.1,19.7L10.1,19.7z M10.1,19.7l0-0.1h0L10.1,19.7c0-0.1,0.1-0.1,0.1-0.1c0,0,0,0,0,0
				c0,0,0,0,0,0c0,0,0,0,0,0c0,0,0,0,0,0L10.1,19.7L10.1,19.7L10.1,19.7C10.2,19.6,10.2,19.6,10.1,19.7
				C10.2,19.6,10.2,19.6,10.1,19.7C10.2,19.6,10.2,19.6,10.1,19.7C10.2,19.6,10.2,19.6,10.1,19.7C10.1,19.6,10.1,19.6,10.1,19.7
				L10.1,19.7L10.1,19.7L10.1,19.7z M10.3,19.7C10.3,19.7,10.3,19.7,10.3,19.7C10.3,19.7,10.3,19.7,10.3,19.7
				C10.2,19.7,10.2,19.7,10.3,19.7C10.2,19.7,10.2,19.7,10.3,19.7C10.2,19.7,10.2,19.7,10.3,19.7C10.2,19.7,10.2,19.6,10.3,19.7
				C10.2,19.6,10.2,19.6,10.3,19.7C10.3,19.6,10.3,19.6,10.3,19.7C10.3,19.6,10.3,19.6,10.3,19.7C10.3,19.6,10.3,19.6,10.3,19.7
				C10.3,19.6,10.3,19.6,10.3,19.7C10.3,19.6,10.3,19.6,10.3,19.7C10.3,19.6,10.3,19.6,10.3,19.7C10.3,19.6,10.3,19.6,10.3,19.7
				L10.3,19.7C10.2,19.6,10.2,19.6,10.3,19.7C10.2,19.6,10.3,19.6,10.3,19.7c0-0.1,0-0.1,0-0.1C10.3,19.6,10.3,19.6,10.3,19.7
				C10.3,19.6,10.3,19.6,10.3,19.7C10.3,19.6,10.3,19.6,10.3,19.7C10.3,19.6,10.3,19.6,10.3,19.7L10.3,19.7
				C10.3,19.7,10.3,19.7,10.3,19.7C10.3,19.7,10.3,19.7,10.3,19.7L10.3,19.7C10.3,19.7,10.3,19.7,10.3,19.7L10.3,19.7z M10.3,19.6
				C10.3,19.6,10.3,19.6,10.3,19.6C10.3,19.7,10.3,19.7,10.3,19.6C10.2,19.7,10.2,19.7,10.3,19.6C10.2,19.7,10.2,19.7,10.3,19.6
				C10.2,19.7,10.2,19.7,10.3,19.6C10.2,19.7,10.3,19.7,10.3,19.6C10.3,19.7,10.3,19.7,10.3,19.6C10.3,19.7,10.3,19.7,10.3,19.6
				C10.3,19.7,10.3,19.7,10.3,19.6L10.3,19.6L10.3,19.6z M10.4,19.7L10.4,19.7C10.4,19.7,10.4,19.7,10.4,19.7
				C10.4,19.7,10.4,19.7,10.4,19.7C10.3,19.7,10.3,19.7,10.4,19.7C10.3,19.7,10.3,19.7,10.4,19.7C10.3,19.6,10.3,19.6,10.4,19.7
				c-0.1-0.1,0-0.1,0-0.1c0,0,0,0,0,0c0,0,0,0,0,0c0,0,0,0,0,0l0-0.1h0L10.4,19.7L10.4,19.7L10.4,19.7z M10.4,19.6
				C10.4,19.7,10.4,19.7,10.4,19.6C10.4,19.7,10.4,19.7,10.4,19.6C10.4,19.7,10.4,19.7,10.4,19.6C10.4,19.7,10.4,19.7,10.4,19.6
				C10.4,19.6,10.4,19.6,10.4,19.6C10.4,19.6,10.4,19.6,10.4,19.6C10.4,19.6,10.4,19.6,10.4,19.6C10.4,19.6,10.4,19.6,10.4,19.6
				L10.4,19.6z M10.5,19.6C10.5,19.6,10.5,19.6,10.5,19.6C10.5,19.6,10.5,19.6,10.5,19.6C10.5,19.6,10.5,19.6,10.5,19.6
				c0.1,0,0.1,0,0.1,0C10.6,19.7,10.6,19.7,10.5,19.6C10.5,19.7,10.5,19.7,10.5,19.6C10.5,19.7,10.5,19.7,10.5,19.6
				C10.5,19.7,10.5,19.7,10.5,19.6C10.5,19.7,10.5,19.7,10.5,19.6L10.5,19.6z M10.5,19.6C10.5,19.7,10.5,19.7,10.5,19.6
				C10.5,19.7,10.5,19.7,10.5,19.6C10.5,19.7,10.5,19.7,10.5,19.6C10.5,19.7,10.5,19.7,10.5,19.6C10.5,19.6,10.5,19.6,10.5,19.6
				C10.5,19.6,10.5,19.6,10.5,19.6C10.5,19.6,10.5,19.6,10.5,19.6C10.5,19.6,10.5,19.6,10.5,19.6L10.5,19.6z M10.6,19.7l0-0.1l0,0
				L10.6,19.7c0-0.1,0-0.1,0-0.1c0,0,0,0,0,0c0,0,0,0,0,0L10.6,19.7C10.7,19.6,10.7,19.6,10.6,19.7C10.7,19.6,10.7,19.6,10.6,19.7
				C10.7,19.6,10.7,19.6,10.6,19.7C10.7,19.6,10.7,19.6,10.6,19.7L10.6,19.7L10.6,19.7L10.6,19.7z M10.8,19.7L10.8,19.7
				C10.8,19.7,10.8,19.7,10.8,19.7C10.8,19.7,10.8,19.7,10.8,19.7C10.7,19.7,10.7,19.7,10.8,19.7C10.7,19.7,10.7,19.7,10.8,19.7
				C10.7,19.6,10.7,19.6,10.8,19.7C10.7,19.6,10.8,19.6,10.8,19.7C10.8,19.6,10.8,19.6,10.8,19.7C10.8,19.6,10.8,19.6,10.8,19.7
				C10.8,19.7,10.8,19.7,10.8,19.7L10.8,19.7C10.7,19.7,10.7,19.7,10.8,19.7C10.7,19.7,10.7,19.7,10.8,19.7
				C10.8,19.7,10.8,19.7,10.8,19.7C10.8,19.7,10.8,19.7,10.8,19.7L10.8,19.7z M10.7,19.6L10.7,19.6C10.8,19.6,10.8,19.6,10.7,19.6
				C10.8,19.6,10.8,19.6,10.7,19.6C10.8,19.6,10.7,19.6,10.7,19.6C10.7,19.6,10.7,19.6,10.7,19.6L10.7,19.6z M10.8,19.7L10.8,19.7
				C10.8,19.7,10.8,19.7,10.8,19.7C10.8,19.7,10.8,19.7,10.8,19.7C10.9,19.7,10.9,19.7,10.8,19.7C10.9,19.7,10.9,19.7,10.8,19.7
				C10.9,19.7,10.9,19.7,10.8,19.7C10.9,19.7,10.9,19.7,10.8,19.7C10.9,19.7,10.8,19.7,10.8,19.7C10.8,19.6,10.8,19.6,10.8,19.7
				C10.8,19.6,10.8,19.6,10.8,19.7C10.8,19.6,10.8,19.6,10.8,19.7C10.8,19.6,10.8,19.6,10.8,19.7C10.8,19.6,10.9,19.6,10.8,19.7
				C10.9,19.6,10.9,19.6,10.8,19.7C10.9,19.6,10.9,19.6,10.8,19.7C10.9,19.6,10.9,19.6,10.8,19.7C10.9,19.6,10.9,19.6,10.8,19.7
				L10.8,19.7C10.9,19.6,10.9,19.6,10.8,19.7C10.9,19.6,10.9,19.6,10.8,19.7C10.9,19.6,10.9,19.6,10.8,19.7
				C10.8,19.6,10.8,19.6,10.8,19.7C10.8,19.6,10.8,19.6,10.8,19.7C10.8,19.6,10.8,19.6,10.8,19.7C10.9,19.6,10.9,19.6,10.8,19.7
				C10.9,19.6,10.9,19.6,10.8,19.7C10.9,19.7,10.9,19.7,10.8,19.7C10.9,19.7,10.9,19.7,10.8,19.7C10.9,19.7,10.9,19.7,10.8,19.7
				C10.9,19.7,10.9,19.7,10.8,19.7C10.9,19.7,10.9,19.7,10.8,19.7C10.8,19.7,10.8,19.7,10.8,19.7C10.8,19.7,10.8,19.7,10.8,19.7
				L10.8,19.7z M10.9,19.8l0-0.2l0,0l0,0c0,0,0,0,0,0c0,0,0,0,0,0c0,0,0,0,0,0c0,0,0,0,0,0c0,0,0,0,0,0c0,0,0,0,0,0
				C11,19.7,11,19.7,10.9,19.8C11,19.7,11,19.7,10.9,19.8C11,19.7,11,19.7,10.9,19.8C10.9,19.7,10.9,19.7,10.9,19.8L10.9,19.8
				L10.9,19.8L10.9,19.8z M10.9,19.7C10.9,19.7,10.9,19.7,10.9,19.7C11,19.7,11,19.7,10.9,19.7C11,19.7,11,19.7,10.9,19.7
				C11,19.7,11,19.7,10.9,19.7C11,19.6,11,19.6,10.9,19.7C11,19.6,11,19.6,10.9,19.7C11,19.6,11,19.6,10.9,19.7
				C11,19.6,11,19.6,10.9,19.7L10.9,19.7z M11.1,19.7L11.1,19.7C11.1,19.7,11.1,19.7,11.1,19.7C11.1,19.7,11.1,19.7,11.1,19.7
				C11.1,19.7,11.1,19.7,11.1,19.7C11,19.7,11,19.7,11.1,19.7C11,19.6,11.1,19.6,11.1,19.7C11.1,19.6,11.1,19.6,11.1,19.7
				C11.1,19.6,11.1,19.6,11.1,19.7C11.1,19.6,11.1,19.6,11.1,19.7C11.1,19.7,11.1,19.7,11.1,19.7L11.1,19.7
				C11.1,19.7,11.1,19.7,11.1,19.7C11.1,19.7,11.1,19.7,11.1,19.7C11.1,19.7,11.1,19.7,11.1,19.7C11.1,19.7,11.1,19.7,11.1,19.7
				L11.1,19.7z M11.1,19.7L11.1,19.7C11.1,19.6,11.1,19.6,11.1,19.7C11.1,19.6,11.1,19.6,11.1,19.7C11.1,19.6,11.1,19.6,11.1,19.7
				C11.1,19.6,11.1,19.6,11.1,19.7L11.1,19.7z M11.2,19.6L11.2,19.6L11.2,19.6L11.2,19.6L11.2,19.6L11.2,19.6z M11.2,19.7l0-0.1l0,0
				L11.2,19.7L11.2,19.7L11.2,19.7z M11.2,19.7L11.2,19.7C11.2,19.7,11.2,19.7,11.2,19.7C11.2,19.7,11.2,19.7,11.2,19.7
				C11.2,19.7,11.2,19.7,11.2,19.7C11.2,19.7,11.2,19.7,11.2,19.7L11.2,19.7L11.2,19.7L11.2,19.7L11.2,19.7l0-0.1l0,0L11.2,19.7
				L11.2,19.7L11.2,19.7L11.2,19.7L11.2,19.7C11.2,19.7,11.2,19.7,11.2,19.7C11.2,19.7,11.2,19.7,11.2,19.7
				C11.2,19.7,11.2,19.7,11.2,19.7C11.2,19.7,11.2,19.7,11.2,19.7L11.2,19.7z M11.3,19.7C11.3,19.7,11.3,19.7,11.3,19.7
				C11.3,19.7,11.3,19.7,11.3,19.7C11.3,19.7,11.3,19.7,11.3,19.7C11.3,19.7,11.3,19.7,11.3,19.7C11.3,19.7,11.3,19.7,11.3,19.7
				C11.3,19.7,11.3,19.7,11.3,19.7C11.3,19.7,11.3,19.7,11.3,19.7C11.3,19.7,11.3,19.7,11.3,19.7C11.3,19.7,11.3,19.7,11.3,19.7
				C11.3,19.7,11.3,19.7,11.3,19.7C11.3,19.6,11.3,19.6,11.3,19.7C11.3,19.6,11.3,19.6,11.3,19.7C11.3,19.6,11.3,19.6,11.3,19.7
				C11.3,19.6,11.3,19.6,11.3,19.7L11.3,19.7C11.3,19.6,11.3,19.6,11.3,19.7C11.3,19.6,11.3,19.6,11.3,19.7c0-0.1,0-0.1,0-0.1
				C11.3,19.6,11.3,19.6,11.3,19.7C11.3,19.6,11.4,19.6,11.3,19.7C11.4,19.6,11.4,19.6,11.3,19.7C11.4,19.6,11.4,19.6,11.3,19.7
				L11.3,19.7C11.3,19.7,11.3,19.7,11.3,19.7C11.3,19.7,11.3,19.7,11.3,19.7L11.3,19.7C11.3,19.7,11.3,19.7,11.3,19.7L11.3,19.7z
				 M11.3,19.7C11.3,19.7,11.3,19.7,11.3,19.7C11.3,19.7,11.3,19.7,11.3,19.7C11.3,19.7,11.3,19.7,11.3,19.7
				C11.3,19.7,11.3,19.7,11.3,19.7C11.3,19.7,11.3,19.7,11.3,19.7C11.3,19.7,11.3,19.7,11.3,19.7C11.3,19.7,11.3,19.7,11.3,19.7
				C11.3,19.7,11.3,19.7,11.3,19.7C11.3,19.7,11.3,19.7,11.3,19.7L11.3,19.7L11.3,19.7z M11.4,19.7C11.4,19.7,11.4,19.6,11.4,19.7
				C11.5,19.6,11.5,19.6,11.4,19.7C11.5,19.6,11.5,19.6,11.4,19.7c0.1,0,0.1,0,0.1,0C11.5,19.7,11.5,19.7,11.4,19.7
				C11.5,19.7,11.5,19.7,11.4,19.7C11.5,19.7,11.5,19.7,11.4,19.7C11.5,19.7,11.4,19.7,11.4,19.7C11.4,19.7,11.4,19.7,11.4,19.7
				L11.4,19.7z M11.4,19.7C11.4,19.7,11.4,19.7,11.4,19.7C11.5,19.7,11.5,19.7,11.4,19.7C11.5,19.7,11.5,19.7,11.4,19.7
				C11.5,19.7,11.5,19.7,11.4,19.7C11.5,19.7,11.5,19.7,11.4,19.7C11.5,19.6,11.5,19.6,11.4,19.7C11.5,19.6,11.5,19.6,11.4,19.7
				C11.5,19.7,11.5,19.7,11.4,19.7L11.4,19.7z M11.6,19.8l0-0.2l0,0l0,0c0,0,0,0,0,0c0,0,0,0,0,0c0,0,0,0,0,0c0,0,0,0,0,0
				c0,0,0,0,0,0c0,0,0,0,0,0C11.7,19.7,11.7,19.7,11.6,19.8C11.7,19.7,11.7,19.7,11.6,19.8C11.6,19.7,11.6,19.7,11.6,19.8
				C11.6,19.7,11.6,19.7,11.6,19.8L11.6,19.8L11.6,19.8L11.6,19.8z M11.6,19.7C11.6,19.7,11.6,19.7,11.6,19.7
				C11.6,19.7,11.6,19.7,11.6,19.7C11.7,19.7,11.7,19.7,11.6,19.7C11.7,19.7,11.7,19.7,11.6,19.7C11.7,19.7,11.7,19.7,11.6,19.7
				C11.7,19.7,11.7,19.6,11.6,19.7C11.7,19.6,11.7,19.6,11.6,19.7C11.6,19.7,11.6,19.7,11.6,19.7L11.6,19.7z M11.7,19.8l0-0.1l0,0
				L11.7,19.8c0-0.1,0-0.1,0.1-0.1c0,0,0,0,0,0c0,0,0,0,0,0L11.7,19.8C11.8,19.7,11.8,19.7,11.7,19.8C11.8,19.7,11.8,19.7,11.7,19.8
				C11.8,19.7,11.8,19.7,11.7,19.8C11.8,19.7,11.7,19.7,11.7,19.8L11.7,19.8L11.7,19.8L11.7,19.8z M11.8,19.7
				C11.8,19.7,11.8,19.7,11.8,19.7C11.8,19.6,11.8,19.6,11.8,19.7C11.9,19.6,11.9,19.6,11.8,19.7c0.1,0,0.1,0,0.1,0
				C11.9,19.7,11.9,19.7,11.8,19.7C11.9,19.7,11.9,19.8,11.8,19.7C11.8,19.8,11.8,19.8,11.8,19.7C11.8,19.8,11.8,19.8,11.8,19.7
				C11.8,19.7,11.8,19.7,11.8,19.7L11.8,19.7z M11.8,19.7C11.8,19.7,11.8,19.7,11.8,19.7C11.8,19.7,11.8,19.7,11.8,19.7
				C11.8,19.7,11.8,19.7,11.8,19.7C11.9,19.7,11.9,19.7,11.8,19.7C11.9,19.7,11.9,19.7,11.8,19.7C11.9,19.7,11.9,19.7,11.8,19.7
				C11.8,19.7,11.8,19.7,11.8,19.7C11.8,19.7,11.8,19.7,11.8,19.7L11.8,19.7z M11.9,19.6L11.9,19.6L11.9,19.6L11.9,19.6L11.9,19.6
				L11.9,19.6z M11.9,19.8L11.9,19.8C11.9,19.8,11.9,19.8,11.9,19.8C11.9,19.8,11.9,19.8,11.9,19.8C11.9,19.8,11.9,19.8,11.9,19.8
				l0.1-0.2l0,0L11.9,19.8C11.9,19.8,11.9,19.8,11.9,19.8C11.9,19.8,11.9,19.8,11.9,19.8C11.9,19.8,11.9,19.8,11.9,19.8L11.9,19.8z
				 M12,19.7L12,19.7C12,19.7,12,19.8,12,19.7C12,19.8,12,19.8,12,19.7C12,19.8,12,19.8,12,19.7C12,19.7,11.9,19.7,12,19.7
				C12,19.7,12,19.7,12,19.7C12,19.7,12,19.7,12,19.7C12,19.7,12,19.7,12,19.7C12.1,19.7,12.1,19.7,12,19.7
				C12.1,19.7,12.1,19.7,12,19.7L12,19.7C12,19.7,12,19.7,12,19.7C12,19.8,12,19.8,12,19.7C12,19.8,12,19.8,12,19.7
				C12,19.7,12,19.7,12,19.7L12,19.7z M12,19.7L12,19.7C12,19.7,12,19.7,12,19.7C12,19.7,12,19.7,12,19.7C12,19.7,12,19.7,12,19.7
				C12,19.7,12,19.7,12,19.7L12,19.7z"/>
                <path class="acsb-l-pt10" d="M12.1,19.7L12.1,19.7C12.2,19.8,12.1,19.8,12.1,19.7C12.1,19.8,12.1,19.8,12.1,19.7
				C12.1,19.8,12.1,19.8,12.1,19.7C12.1,19.8,12.1,19.7,12.1,19.7C12.1,19.7,12.1,19.7,12.1,19.7C12.1,19.7,12.1,19.7,12.1,19.7
				C12.1,19.7,12.1,19.7,12.1,19.7C12.1,19.7,12.2,19.7,12.1,19.7C12.2,19.7,12.2,19.7,12.1,19.7L12.1,19.7
				C12.1,19.7,12.1,19.7,12.1,19.7C12.1,19.7,12.1,19.7,12.1,19.7C12.1,19.7,12.1,19.7,12.1,19.7C12.1,19.7,12.1,19.7,12.1,19.7
				C12.1,19.7,12.1,19.7,12.1,19.7C12.1,19.8,12.1,19.8,12.1,19.7C12.1,19.8,12.1,19.8,12.1,19.7C12.1,19.8,12.1,19.7,12.1,19.7z
				 M12.2,19.8L12.2,19.8C12.2,19.8,12.2,19.8,12.2,19.8C12.2,19.8,12.2,19.8,12.2,19.8C12.2,19.8,12.2,19.8,12.2,19.8
				C12.2,19.8,12.2,19.8,12.2,19.8L12.2,19.8L12.2,19.8L12.2,19.8L12.2,19.8l0-0.1l0,0L12.2,19.8L12.2,19.8L12.2,19.8L12.2,19.8
				L12.2,19.8C12.2,19.8,12.2,19.8,12.2,19.8C12.2,19.8,12.2,19.8,12.2,19.8C12.2,19.8,12.2,19.8,12.2,19.8
				C12.2,19.8,12.2,19.8,12.2,19.8z M12.2,19.7C12.2,19.7,12.2,19.7,12.2,19.7C12.3,19.7,12.3,19.7,12.2,19.7
				C12.3,19.7,12.3,19.7,12.2,19.7c0.1,0,0.1,0,0.1,0C12.3,19.8,12.3,19.8,12.2,19.7C12.3,19.8,12.3,19.8,12.2,19.7
				C12.3,19.8,12.3,19.8,12.2,19.7C12.3,19.8,12.2,19.8,12.2,19.7C12.2,19.8,12.2,19.8,12.2,19.7z M12.2,19.7
				C12.2,19.7,12.2,19.8,12.2,19.7C12.3,19.8,12.3,19.8,12.2,19.7C12.3,19.8,12.3,19.8,12.2,19.7C12.3,19.8,12.3,19.8,12.2,19.7
				C12.3,19.7,12.3,19.7,12.2,19.7C12.3,19.7,12.3,19.7,12.2,19.7C12.3,19.7,12.3,19.7,12.2,19.7C12.3,19.7,12.3,19.7,12.2,19.7
				L12.2,19.7z M12.5,19.8L12.5,19.8C12.5,19.8,12.4,19.8,12.5,19.8C12.4,19.8,12.4,19.8,12.5,19.8C12.4,19.8,12.4,19.8,12.5,19.8
				C12.4,19.8,12.4,19.8,12.5,19.8C12.4,19.7,12.4,19.7,12.5,19.8c0-0.1,0-0.1,0-0.1c0,0,0,0,0,0c0,0,0,0,0,0c0,0,0,0,0,0l0-0.1l0,0
				L12.5,19.8L12.5,19.8L12.5,19.8z M12.4,19.7C12.4,19.8,12.4,19.8,12.4,19.7C12.4,19.8,12.4,19.8,12.4,19.7
				C12.4,19.8,12.5,19.8,12.4,19.7C12.5,19.8,12.5,19.8,12.4,19.7C12.5,19.7,12.5,19.7,12.4,19.7C12.5,19.7,12.5,19.7,12.4,19.7
				C12.5,19.7,12.4,19.7,12.4,19.7C12.4,19.7,12.4,19.7,12.4,19.7z M12.6,19.8L12.6,19.8C12.6,19.8,12.6,19.8,12.6,19.8
				C12.6,19.8,12.6,19.8,12.6,19.8C12.5,19.8,12.5,19.8,12.6,19.8C12.5,19.8,12.5,19.8,12.6,19.8C12.5,19.7,12.5,19.7,12.6,19.8
				C12.6,19.7,12.6,19.7,12.6,19.8C12.6,19.7,12.6,19.7,12.6,19.8C12.6,19.7,12.6,19.7,12.6,19.8C12.6,19.8,12.6,19.8,12.6,19.8
				L12.6,19.8C12.5,19.8,12.5,19.8,12.6,19.8C12.5,19.8,12.6,19.8,12.6,19.8C12.6,19.8,12.6,19.8,12.6,19.8
				C12.6,19.8,12.6,19.8,12.6,19.8L12.6,19.8z M12.5,19.7L12.5,19.7C12.6,19.7,12.6,19.7,12.5,19.7C12.6,19.7,12.6,19.7,12.5,19.7
				C12.6,19.7,12.6,19.7,12.5,19.7C12.6,19.7,12.5,19.7,12.5,19.7L12.5,19.7z M12.8,19.8L12.8,19.8C12.8,19.8,12.8,19.8,12.8,19.8
				C12.8,19.8,12.8,19.8,12.8,19.8C12.7,19.8,12.7,19.8,12.8,19.8c-0.1,0-0.1,0-0.1,0c0,0,0,0,0,0C12.7,19.7,12.7,19.7,12.8,19.8
				c-0.1-0.1-0.1-0.1-0.1-0.1c0,0,0,0,0,0C12.8,19.7,12.8,19.7,12.8,19.8C12.8,19.7,12.8,19.7,12.8,19.8L12.8,19.8
				C12.8,19.7,12.8,19.7,12.8,19.8C12.8,19.7,12.8,19.7,12.8,19.8C12.8,19.7,12.8,19.7,12.8,19.8C12.7,19.7,12.7,19.7,12.8,19.8
				C12.7,19.7,12.7,19.7,12.8,19.8C12.7,19.8,12.7,19.8,12.8,19.8C12.7,19.8,12.7,19.8,12.8,19.8C12.7,19.8,12.7,19.8,12.8,19.8
				C12.8,19.8,12.8,19.8,12.8,19.8C12.8,19.8,12.8,19.8,12.8,19.8L12.8,19.8z M12.8,19.8C12.8,19.8,12.9,19.8,12.8,19.8
				C12.9,19.7,12.9,19.7,12.8,19.8C12.9,19.7,12.9,19.7,12.8,19.8c0.1,0,0.1,0,0.1,0C12.9,19.8,12.9,19.8,12.8,19.8
				C12.9,19.8,12.9,19.8,12.8,19.8C12.9,19.9,12.9,19.9,12.8,19.8C12.9,19.9,12.8,19.8,12.8,19.8C12.8,19.8,12.8,19.8,12.8,19.8
				L12.8,19.8z M12.9,19.8C12.9,19.8,12.9,19.8,12.9,19.8C12.9,19.8,12.9,19.8,12.9,19.8C12.9,19.8,12.9,19.8,12.9,19.8
				C12.9,19.8,12.9,19.8,12.9,19.8C12.9,19.8,12.9,19.8,12.9,19.8C12.9,19.8,12.9,19.8,12.9,19.8C12.9,19.8,12.9,19.8,12.9,19.8
				C12.9,19.8,12.9,19.8,12.9,19.8L12.9,19.8z M12.9,19.9l0-0.2l0,0L12.9,19.9L12.9,19.9L12.9,19.9z M13.1,19.9L13.1,19.9
				C13.1,19.9,13,19.9,13.1,19.9C13,19.9,13,19.9,13.1,19.9C13,19.9,13,19.9,13.1,19.9C13,19.9,13,19.8,13.1,19.9
				C13,19.8,13,19.8,13.1,19.9l0-0.1l0,0L13.1,19.9C13,19.8,13,19.8,13.1,19.9C13,19.8,13,19.8,13.1,19.9C13,19.9,13,19.9,13.1,19.9
				C13,19.9,13,19.9,13.1,19.9C13.1,19.9,13.1,19.8,13.1,19.9C13.1,19.8,13.1,19.8,13.1,19.9l0-0.1l0,0L13.1,19.9L13.1,19.9
				L13.1,19.9z M13.1,19.9l0-0.1l0,0L13.1,19.9c0-0.1,0.1-0.1,0.1-0.1c0,0,0,0,0,0c0,0,0,0,0,0c0,0,0,0,0,0c0,0,0,0,0,0c0,0,0,0,0,0
				c0,0,0,0,0,0l0,0.1l0,0l0-0.1c0,0,0,0,0,0c0,0,0,0,0,0c0,0,0,0,0,0c0,0,0,0,0,0C13.2,19.8,13.2,19.8,13.1,19.9L13.1,19.9
				L13.1,19.9L13.1,19.9C13.2,19.8,13.2,19.8,13.1,19.9C13.2,19.8,13.2,19.8,13.1,19.9C13.2,19.8,13.2,19.8,13.1,19.9
				C13.2,19.8,13.2,19.8,13.1,19.9C13.1,19.8,13.1,19.8,13.1,19.9L13.1,19.9L13.1,19.9L13.1,19.9z M13.3,19.9L13.3,19.9l0-0.2l0,0
				L13.3,19.9c0-0.1,0.1-0.1,0.1-0.1c0,0,0,0,0,0C13.4,19.8,13.4,19.8,13.3,19.9C13.4,19.8,13.4,19.8,13.3,19.9
				C13.4,19.8,13.4,19.8,13.3,19.9C13.4,19.9,13.4,19.9,13.3,19.9C13.3,19.9,13.3,19.9,13.3,19.9C13.3,19.9,13.3,19.9,13.3,19.9
				L13.3,19.9L13.3,19.9z M13.3,19.8C13.3,19.9,13.3,19.9,13.3,19.8C13.3,19.9,13.3,19.9,13.3,19.8C13.3,19.9,13.3,19.9,13.3,19.8
				C13.4,19.9,13.4,19.9,13.3,19.8C13.4,19.8,13.4,19.8,13.3,19.8C13.4,19.8,13.4,19.8,13.3,19.8C13.3,19.8,13.3,19.8,13.3,19.8
				C13.3,19.8,13.3,19.8,13.3,19.8L13.3,19.8z M13.5,19.9C13.5,19.9,13.4,19.9,13.5,19.9C13.4,19.9,13.4,19.9,13.5,19.9
				C13.4,19.9,13.4,19.9,13.5,19.9C13.4,19.9,13.4,19.9,13.5,19.9C13.4,19.9,13.4,19.9,13.5,19.9C13.4,19.9,13.4,19.9,13.5,19.9
				C13.4,19.9,13.4,19.9,13.5,19.9C13.4,19.9,13.4,19.9,13.5,19.9C13.5,19.9,13.5,19.9,13.5,19.9C13.5,19.9,13.5,19.9,13.5,19.9
				C13.5,19.8,13.5,19.8,13.5,19.9C13.5,19.8,13.5,19.8,13.5,19.9C13.5,19.8,13.4,19.8,13.5,19.9C13.4,19.8,13.4,19.8,13.5,19.9
				L13.5,19.9C13.4,19.8,13.4,19.8,13.5,19.9c0-0.1,0-0.1,0-0.1c0,0,0,0,0,0C13.5,19.8,13.5,19.8,13.5,19.9
				C13.5,19.8,13.5,19.8,13.5,19.9C13.5,19.8,13.5,19.8,13.5,19.9C13.5,19.8,13.5,19.8,13.5,19.9L13.5,19.9
				C13.5,19.9,13.5,19.9,13.5,19.9C13.5,19.9,13.5,19.9,13.5,19.9L13.5,19.9C13.5,19.9,13.5,19.9,13.5,19.9L13.5,19.9z M13.5,19.9
				C13.5,19.9,13.5,19.9,13.5,19.9C13.4,19.9,13.4,19.9,13.5,19.9C13.4,19.9,13.4,19.9,13.5,19.9C13.4,19.9,13.4,19.9,13.5,19.9
				C13.4,19.9,13.4,19.9,13.5,19.9C13.4,19.9,13.4,19.9,13.5,19.9C13.4,19.9,13.4,19.9,13.5,19.9C13.5,19.9,13.5,19.9,13.5,19.9
				C13.5,19.9,13.5,19.9,13.5,19.9L13.5,19.9L13.5,19.9z M13.5,19.9l0-0.1l0,0L13.5,19.9c0.1-0.1,0.1-0.1,0.1-0.1c0,0,0,0,0,0
				c0,0,0,0,0,0c0,0,0,0,0,0c0,0,0,0,0,0L13.5,19.9L13.5,19.9L13.5,19.9C13.6,19.9,13.6,19.9,13.5,19.9
				C13.6,19.9,13.6,19.9,13.5,19.9C13.6,19.8,13.6,19.8,13.5,19.9C13.6,19.8,13.6,19.8,13.5,19.9C13.6,19.9,13.5,19.9,13.5,19.9
				L13.5,19.9L13.5,19.9L13.5,19.9z M13.6,19.9C13.6,19.9,13.6,19.9,13.6,19.9C13.7,19.8,13.7,19.8,13.6,19.9
				C13.7,19.8,13.7,19.9,13.6,19.9C13.7,19.9,13.7,19.9,13.6,19.9C13.7,19.9,13.7,19.9,13.6,19.9C13.7,20,13.7,20,13.6,19.9
				C13.7,20,13.7,20,13.6,19.9C13.6,20,13.6,20,13.6,19.9C13.6,19.9,13.6,19.9,13.6,19.9L13.6,19.9z M13.6,19.9
				C13.6,19.9,13.6,19.9,13.6,19.9C13.6,19.9,13.7,19.9,13.6,19.9C13.7,19.9,13.7,19.9,13.6,19.9C13.7,19.9,13.7,19.9,13.6,19.9
				C13.7,19.9,13.7,19.9,13.6,19.9C13.7,19.9,13.7,19.9,13.6,19.9C13.7,19.9,13.7,19.9,13.6,19.9C13.7,19.9,13.6,19.9,13.6,19.9
				L13.6,19.9z"/>
                <path class="acsb-l-pt11" d="M14.5,19.6l-0.5,0.8L14.5,19.6z"/>
                <path class="acsb-l-pt4"
                      d="M3,12.1c2.6,0,14.4,7.2,14.5,8.6l-0.7,1.1c-0.3-1.6-12.4-8.6-14.3-8.5L3,12.1L3,12.1z"/>
                <path class="acsb-l-pt9" d="M17.4,20.8l-0.6,1L17.4,20.8z"/>
                <path class="acsb-l-pt9" d="M2.9,12.2l-0.6,1.1L2.9,12.2z"/>
                <path class="acsb-l-pt4" d="M2.3,13.3c0.5-0.3,4,1.2,7.6,3.4c3.7,2.2,7.1,4.7,6.8,5.2l-0.1,0.2l0,0c0,0,0.1-0.1,0-0.2
				c-0.2-0.5-2.6-2.5-6.7-5c-4-2.4-7.3-3.8-7.7-3.4L2.3,13.3L2.3,13.3z M17.5,20.8c0.3-0.6-2.9-3-7-5.4c-4.1-2.3-7.1-3.7-7.6-3.3
				l-0.1,0.2c0,0,0,0,0,0c0.1-0.1,0.3-0.1,0.3-0.1c0.9,0,3.6,1.2,7.3,3.4c1.6,1,6.9,4.3,6.9,5.3c0,0.1,0,0.1,0,0.1L17.5,20.8
				L17.5,20.8z"/>
                <path class="acsb-l-pt9" d="M2.3,13.3c0.5-0.3,4,1.2,7.6,3.4c3.7,2.2,7.1,4.7,6.8,5.2l-0.1,0.2l0,0c0,0,0.1-0.1,0-0.2
				c-0.2-0.5-2.6-2.5-6.7-5c-4-2.4-7.3-3.8-7.7-3.4L2.3,13.3L2.3,13.3z M17.5,20.8c0.3-0.6-2.9-3-7-5.4c-4.1-2.3-7.1-3.7-7.6-3.3
				l-0.1,0.2c0,0,0,0,0,0c0.1-0.1,0.3-0.1,0.3-0.1c0.9,0,3.6,1.2,7.3,3.4c1.6,1,6.9,4.3,6.9,5.3c0,0.1,0,0.1,0,0.1L17.5,20.8
				L17.5,20.8z"/>
                <path class="acsb-l-pt12" d="M5,17.8c0,1.4,0.6,2.6,1.5,3.5c0.9,0.9,2.2,1.5,3.5,1.5c1.4,0,2.6-0.6,3.5-1.5c0.9-0.9,1.5-2.2,1.5-3.5h0
				v-6.7l-10,0L5,17.8L5,17.8z"/>
                <path class="acsb-l-pt13" d="M5,17.8c0,1.4,0.6,2.6,1.5,3.5c0.9,0.9,2.2,1.5,3.5,1.5c1.4,0,2.6-0.6,3.5-1.5c0.9-0.9,1.5-2.2,1.5-3.5l0,0
				v-6.7l-10,0L5,17.8L5,17.8z"/>
                <path class="acsb-l-pt14" d="M5.2,17.8L5.2,17.8L5.2,17.8c0,1.3,0.5,2.5,1.4,3.4c0.9,0.9,2.1,1.4,3.4,1.4c1.3,0,2.5-0.5,3.4-1.4
				c0.9-0.9,1.4-2.1,1.4-3.4l0,0v-6.5l-9.6,0L5.2,17.8L5.2,17.8z M12.8,13.2l0,4.1l0,0.4l0,0c0,0.1,0,0.2,0,0.4
				c-0.1,0.7-0.4,1.2-0.8,1.7c-0.5,0.5-1.2,0.8-2,0.8c-0.8,0-1.5-0.3-2-0.9c-0.5-0.5-0.8-1.3-0.8-2l0-4.6L12.8,13.2L12.8,13.2z"/>
                <path class="acsb-l-pt15" d="M5.2,17.8L5.2,17.8L5.2,17.8c0,1.3,0.5,2.5,1.4,3.4c0.9,0.9,2.1,1.4,3.4,1.4c1.3,0,2.5-0.5,3.4-1.4
				c0.9-0.9,1.4-2.1,1.4-3.4l0,0v-6.5l-9.6,0L5.2,17.8L5.2,17.8z M12.8,13.2l0,4.1l0,0.4l0,0c0,0.1,0,0.2,0,0.4
				c-0.1,0.7-0.4,1.2-0.8,1.7c-0.5,0.5-1.2,0.8-2,0.8c-0.8,0-1.5-0.3-2-0.9c-0.5-0.5-0.8-1.3-0.8-2l0-4.6L12.8,13.2L12.8,13.2z"/>
                <path class="acsb-l-pt16" d="M9.4,17L9.4,17c0,0.2,0.1,0.4,0.2,0.5c0.1,0.1,0.3,0.2,0.4,0.2c0.2,0,0.3-0.1,0.4-0.2
				c0.1-0.1,0.2-0.3,0.2-0.5l0,0v-0.9l-1.3,0L9.4,17L9.4,17z"/>
                <path class="acsb-l-pt12" d="M10.3,16.3c-0.1,0-0.1,0.1-0.1,0.1c0,0.1,0.1,0.1,0.1,0.1c0.1,0,0.1-0.1,0.1-0.1
				C10.5,16.4,10.4,16.3,10.3,16.3L10.3,16.3z"/>
                <path class="acsb-l-pt12" d="M10,16.7c-0.1,0-0.1,0.1-0.1,0.1c0,0.1,0.1,0.1,0.1,0.1c0.1,0,0.1-0.1,0.1-0.1C10.1,16.7,10.1,16.7,10,16.7
				L10,16.7z"/>
                <path class="acsb-l-pt12"
                      d="M10.3,17c-0.1,0-0.1,0.1-0.1,0.1s0.1,0.1,0.1,0.1c0.1,0,0.1-0.1,0.1-0.1S10.4,17,10.3,17L10.3,17z"/>
                <path class="acsb-l-pt12" d="M9.7,17c-0.1,0-0.1,0.1-0.1,0.1c0,0.1,0.1,0.1,0.1,0.1c0.1,0,0.1-0.1,0.1-0.1C9.8,17.1,9.7,17,9.7,17
				L9.7,17z"/>
                <path class="acsb-l-pt12" d="M9.7,16.3c-0.1,0-0.1,0.1-0.1,0.1c0,0.1,0.1,0.1,0.1,0.1c0.1,0,0.1-0.1,0.1-0.1C9.8,16.4,9.7,16.3,9.7,16.3
				L9.7,16.3z"/>
                <path class="acsb-l-pt16" d="M9.3,19.2L9.3,19.2c0,0.2,0.1,0.4,0.2,0.5c0.1,0.1,0.3,0.2,0.4,0.2c0.2,0,0.3-0.1,0.4-0.2
				c0.1-0.1,0.2-0.3,0.2-0.5l0,0v-0.9l-1.3,0L9.3,19.2L9.3,19.2z"/>
                <path class="acsb-l-pt12" d="M10.3,18.5c-0.1,0-0.1,0.1-0.1,0.1c0,0.1,0.1,0.1,0.1,0.1c0.1,0,0.1-0.1,0.1-0.1
				C10.5,18.6,10.4,18.5,10.3,18.5L10.3,18.5z"/>
                <path class="acsb-l-pt12" d="M10,18.9c-0.1,0-0.1,0.1-0.1,0.1c0,0.1,0.1,0.1,0.1,0.1c0.1,0,0.1-0.1,0.1-0.1C10.1,18.9,10.1,18.9,10,18.9
				L10,18.9z"/>
                <path class="acsb-l-pt12" d="M10.3,19.2c-0.1,0-0.1,0.1-0.1,0.1c0,0.1,0.1,0.1,0.1,0.1c0.1,0,0.1-0.1,0.1-0.1
				C10.5,19.3,10.4,19.2,10.3,19.2L10.3,19.2z"/>
                <path class="acsb-l-pt12" d="M9.7,19.2c-0.1,0-0.1,0.1-0.1,0.1c0,0.1,0.1,0.1,0.1,0.1c0.1,0,0.1-0.1,0.1-0.1C9.8,19.3,9.7,19.2,9.7,19.2
				L9.7,19.2z"/>
                <path class="acsb-l-pt12" d="M9.7,18.5c-0.1,0-0.1,0.1-0.1,0.1c0,0.1,0.1,0.1,0.1,0.1c0.1,0,0.1-0.1,0.1-0.1C9.8,18.6,9.7,18.5,9.7,18.5
				L9.7,18.5z"/>
                <path class="acsb-l-pt16" d="M7.6,17L7.6,17c0,0.2,0.1,0.4,0.2,0.5c0.1,0.1,0.3,0.2,0.4,0.2c0.2,0,0.3-0.1,0.4-0.2
				c0.1-0.1,0.2-0.3,0.2-0.5l0,0v-0.9l-1.3,0L7.6,17L7.6,17z"/>
                <path class="acsb-l-pt12" d="M8.6,16.4c-0.1,0-0.1,0.1-0.1,0.1c0,0.1,0.1,0.1,0.1,0.1c0.1,0,0.1-0.1,0.1-0.1C8.7,16.4,8.7,16.4,8.6,16.4
				L8.6,16.4z"/>
                <path class="acsb-l-pt12" d="M8.2,16.7c-0.1,0-0.1,0.1-0.1,0.1c0,0.1,0.1,0.1,0.1,0.1c0.1,0,0.1-0.1,0.1-0.1C8.4,16.7,8.3,16.7,8.2,16.7
				L8.2,16.7z"/>
                <path class="acsb-l-pt12" d="M8.6,17c-0.1,0-0.1,0.1-0.1,0.1c0,0.1,0.1,0.1,0.1,0.1c0.1,0,0.1-0.1,0.1-0.1C8.7,17.1,8.7,17,8.6,17
				L8.6,17z"/>
                <path class="acsb-l-pt12"
                      d="M7.9,17c-0.1,0-0.1,0.1-0.1,0.1c0,0.1,0.1,0.1,0.1,0.1C8,17.3,8,17.2,8,17.2C8,17.1,8,17,7.9,17L7.9,17z"/>
                <path class="acsb-l-pt12" d="M7.9,16.3c-0.1,0-0.1,0.1-0.1,0.1c0,0.1,0.1,0.1,0.1,0.1C8,16.6,8,16.5,8,16.5C8,16.4,8,16.3,7.9,16.3
				L7.9,16.3z"/>
                <path class="acsb-l-pt16" d="M11.1,17L11.1,17c0,0.2,0.1,0.4,0.2,0.5c0.1,0.1,0.3,0.2,0.4,0.2c0.2,0,0.3-0.1,0.4-0.2
				c0.1-0.1,0.2-0.3,0.2-0.5l0,0v-0.9l-1.3,0L11.1,17L11.1,17z"/>
                <path class="acsb-l-pt12" d="M12.1,16.3c-0.1,0-0.1,0.1-0.1,0.1c0,0.1,0.1,0.1,0.1,0.1c0.1,0,0.1-0.1,0.1-0.1
				C12.2,16.4,12.2,16.3,12.1,16.3L12.1,16.3z"/>
                <path class="acsb-l-pt12" d="M11.7,16.7c-0.1,0-0.1,0.1-0.1,0.1c0,0.1,0.1,0.1,0.1,0.1c0.1,0,0.1-0.1,0.1-0.1
				C11.9,16.7,11.8,16.7,11.7,16.7L11.7,16.7z"/>
                <path class="acsb-l-pt12" d="M12.1,17C12,17,12,17.1,12,17.2c0,0.1,0.1,0.1,0.1,0.1c0.1,0,0.1-0.1,0.1-0.1C12.2,17.1,12.2,17,12.1,17
				L12.1,17z"/>
                <path class="acsb-l-pt12" d="M11.4,17c-0.1,0-0.1,0.1-0.1,0.1c0,0.1,0.1,0.1,0.1,0.1c0.1,0,0.1-0.1,0.1-0.1C11.5,17.1,11.5,17,11.4,17
				L11.4,17z"/>
                <path class="acsb-l-pt12" d="M11.4,16.3c-0.1,0-0.1,0.1-0.1,0.1c0,0.1,0.1,0.1,0.1,0.1c0.1,0,0.1-0.1,0.1-0.1
				C11.5,16.4,11.5,16.3,11.4,16.3L11.4,16.3z"/>
                <path class="acsb-l-pt16" d="M9.4,14.8L9.4,14.8c0,0.2,0.1,0.4,0.2,0.5c0.1,0.1,0.3,0.2,0.4,0.2c0.2,0,0.3-0.1,0.4-0.2
				c0.1-0.1,0.2-0.3,0.2-0.5l0,0v-0.9l-1.3,0L9.4,14.8L9.4,14.8z"/>
                <path class="acsb-l-pt12" d="M10.3,14.2c-0.1,0-0.1,0.1-0.1,0.1c0,0.1,0.1,0.1,0.1,0.1c0.1,0,0.1-0.1,0.1-0.1
				C10.5,14.2,10.4,14.2,10.3,14.2L10.3,14.2z"/>
                <path class="acsb-l-pt12" d="M10,14.5c-0.1,0-0.1,0.1-0.1,0.1c0,0.1,0.1,0.1,0.1,0.1c0.1,0,0.1-0.1,0.1-0.1C10.1,14.5,10.1,14.5,10,14.5
				L10,14.5z"/>
                <path class="acsb-l-pt12" d="M10.3,14.8c-0.1,0-0.1,0.1-0.1,0.1c0,0.1,0.1,0.1,0.1,0.1c0.1,0,0.1-0.1,0.1-0.1
				C10.5,14.9,10.4,14.8,10.3,14.8L10.3,14.8z"/>
                <path class="acsb-l-pt12" d="M9.7,14.8c-0.1,0-0.1,0.1-0.1,0.1c0,0.1,0.1,0.1,0.1,0.1c0.1,0,0.1-0.1,0.1-0.1C9.8,14.9,9.7,14.8,9.7,14.8
				L9.7,14.8z"/>
                <path class="acsb-l-pt12" d="M9.7,14.2c-0.1,0-0.1,0.1-0.1,0.1c0,0.1,0.1,0.1,0.1,0.1c0.1,0,0.1-0.1,0.1-0.1C9.8,14.2,9.7,14.2,9.7,14.2
				L9.7,14.2z"/>
                <path class="acsb-l-pt4" d="M5.8,13c0-0.5,0.3-0.6,0.3-0.6c0,0,0.4,0.1,0.4,0.6L5.8,13L5.8,13z"/>
                <path class="acsb-l-pt4"
                      d="M5.5,12.4L5.4,13l0.3,0c0-0.4,0.3-0.5,0.3-0.5c0,0,0.3,0.1,0.3,0.5h0.4l-0.1-0.5L5.5,12.4L5.5,12.4z"/>
                <path class="acsb-l-pt17"
                      d="M5.5,12.4L5.4,13l0.3,0c0-0.4,0.3-0.5,0.3-0.5c0,0,0.3,0.1,0.3,0.5h0.4l-0.1-0.5L5.5,12.4L5.5,12.4z"/>
                <path class="acsb-l-pt4" d="M5.4,13h1.4c0,0,0.1,0,0.1,0.1c0,0,0,0.1-0.1,0.1H5.4C5.4,13.1,5.4,13.1,5.4,13C5.4,13,5.4,13,5.4,13L5.4,13
				z"/>
                <path class="acsb-l-pt17" d="M5.4,13h1.4c0,0,0.1,0,0.1,0.1l0,0c0,0,0,0.1-0.1,0.1H5.4C5.4,13.1,5.4,13.1,5.4,13L5.4,13
				C5.4,13,5.4,13,5.4,13z"/>
                <path class="acsb-l-pt4" d="M5.9,13c0-0.3,0.2-0.4,0.2-0.4s0.2,0.1,0.2,0.4H5.9L5.9,13z"/>
                <path class="acsb-l-pt18" d="M5.9,13c0-0.3,0.2-0.4,0.2-0.4s0.2,0.1,0.2,0.4H5.9L5.9,13z"/>
                <path class="acsb-l-pt4" d="M5.4,12.2h1.4c0,0,0.1,0,0.1,0.1c0,0,0,0.1-0.1,0.1H5.4C5.4,12.3,5.4,12.3,5.4,12.2
				C5.4,12.2,5.4,12.2,5.4,12.2L5.4,12.2z"/>
                <path class="acsb-l-pt19" d="M5.4,12.2h1.4c0,0,0.1,0,0.1,0.1l0,0c0,0,0,0.1-0.1,0.1H5.4C5.4,12.3,5.4,12.3,5.4,12.2L5.4,12.2
				C5.4,12.2,5.4,12.2,5.4,12.2z"/>
                <path class="acsb-l-pt4" d="M5.5,12.3h1.3c0,0,0.1,0,0.1,0.1c0,0,0,0.1-0.1,0.1H5.5C5.4,12.4,5.4,12.4,5.5,12.3
				C5.4,12.3,5.4,12.3,5.5,12.3L5.5,12.3z"/>
                <path class="acsb-l-pt19" d="M5.5,12.3h1.3c0,0,0.1,0,0.1,0.1l0,0c0,0,0,0.1-0.1,0.1H5.5C5.4,12.4,5.4,12.4,5.5,12.3L5.5,12.3
				C5.4,12.3,5.4,12.3,5.5,12.3z"/>
                <path class="acsb-l-pt4"
                      d="M5.9,11.4l0.1,0v0.1h0.1v-0.1h0.1v0.1h0.1v-0.1h0.1v0.2c0,0,0,0,0,0H5.9c0,0,0,0,0,0L5.9,11.4L5.9,11.4z"/>
                <path class="acsb-l-pt20"
                      d="M5.9,11.4l0.1,0v0.1h0.1v-0.1h0.1v0.1h0.1v-0.1h0.1v0.2c0,0,0,0,0,0H5.9c0,0,0,0,0,0V11.4L5.9,11.4z"/>
                <polygon class="acsb-l-pt4" points="6.3,11.6 6.3,12.2 5.9,12.2 6,11.6 6.3,11.6 			"/>
                <polygon class="acsb-l-pt19" points="6.3,11.6 6.3,12.2 5.9,12.2 6,11.6 6.3,11.6 			"/>
                <path class="acsb-l-pt4"
                      d="M6.3,11.7h0.1v0.1h0.1v-0.1l0.1,0v0.1h0.1v-0.1h0.1l0,0.2c0,0,0,0,0,0H6.4c0,0,0,0,0,0V11.7L6.3,11.7z"/>
                <path class="acsb-l-pt21"
                      d="M6.3,11.7l0.1,0v0.1h0.1v-0.1l0.1,0v0.1h0.1v-0.1h0.1l0,0.2c0,0,0,0,0,0H6.4c0,0,0,0,0,0V11.7L6.3,11.7z"/>
                <polygon class="acsb-l-pt4" points="6.7,11.9 6.7,12.2 6.4,12.2 6.4,11.9 6.7,11.9 			"/>
                <polygon class="acsb-l-pt22" points="6.7,11.9 6.7,12.2 6.4,12.2 6.4,11.9 6.7,11.9 			"/>
                <path class="acsb-l-pt4" d="M5.4,11.7h0.1v0.1h0.1v-0.1l0.1,0v0.1h0.1v-0.1l0.1,0l0,0.2c0,0,0,0,0,0H5.5c0,0,0,0,0,0L5.4,11.7L5.4,11.7z
				"/>
                <path class="acsb-l-pt21" d="M5.4,11.7h0.1v0.1h0.1v-0.1l0.1,0v0.1h0.1v-0.1l0.1,0l0,0.2c0,0,0,0,0,0H5.5c0,0,0,0,0,0L5.4,11.7L5.4,11.7
				z"/>
                <polygon class="acsb-l-pt4" points="5.8,11.9 5.8,12.2 5.5,12.2 5.5,11.9 5.8,11.9 			"/>
                <polygon class="acsb-l-pt22" points="5.8,11.9 5.8,12.2 5.5,12.2 5.5,11.9 5.8,11.9 			"/>
                <path class="acsb-l-pt10" d="M6.1,11.8C6.1,11.8,6.2,11.8,6.1,11.8L6.2,12H6.1V11.8L6.1,11.8z"/>
                <path class="acsb-l-pt10" d="M6.5,12C6.5,12,6.6,12,6.5,12l0.1,0.1H6.5V12L6.5,12z"/>
                <path class="acsb-l-pt10" d="M5.6,12C5.6,12,5.7,12,5.6,12l0.1,0.1H5.6V12L5.6,12z"/>
                <path class="acsb-l-pt4" d="M9.7,11.4h0.1v0.1h0.1v-0.1l0.1,0v0.1h0.1v-0.1l0.1,0l0,0.2c0,0,0,0,0,0H9.8c0,0,0,0,0,0L9.7,11.4L9.7,11.4z
				"/>
                <path class="acsb-l-pt20"
                      d="M9.7,11.4h0.1v0.1h0.1v-0.1l0.1,0v0.1h0.1v-0.1l0.1,0l0,0.2c0,0,0,0,0,0H9.8c0,0,0,0,0,0V11.4L9.7,11.4z"/>
                <polygon class="acsb-l-pt4" points="10.1,11.6 10.2,12.2 9.8,12.2 9.8,11.6 10.1,11.6 			"/>
                <polygon class="acsb-l-pt19" points="10.1,11.6 10.2,12.2 9.8,12.2 9.8,11.6 10.1,11.6 			"/>
                <path class="acsb-l-pt4"
                      d="M10.2,11.7l0.1,0v0.1h0.1v-0.1l0.1,0v0.1h0.1v-0.1h0.1l0,0.2c0,0,0,0,0,0h-0.4c0,0,0,0,0,0V11.7L10.2,11.7z"
                />
                <path class="acsb-l-pt21"
                      d="M10.2,11.7h0.1v0.1h0.1v-0.1l0.1,0v0.1h0.1v-0.1h0.1v0.2c0,0,0,0,0,0h-0.4c0,0,0,0,0,0V11.7L10.2,11.7z"/>
                <polygon class="acsb-l-pt4" points="10.6,11.9 10.6,12.2 10.3,12.2 10.3,11.9 10.6,11.9 			"/>
                <polygon class="acsb-l-pt22" points="10.6,11.9 10.6,12.2 10.3,12.2 10.3,11.9 10.6,11.9 			"/>
                <path class="acsb-l-pt4"
                      d="M9.3,11.7h0.1v0.1h0.1v-0.1h0.1v0.1h0.1v-0.1h0.1v0.2c0,0,0,0,0,0H9.4c0,0,0,0,0,0L9.3,11.7L9.3,11.7z"/>
                <path class="acsb-l-pt21"
                      d="M9.3,11.7h0.1v0.1h0.1v-0.1h0.1v0.1h0.1v-0.1h0.1v0.2c0,0,0,0,0,0H9.4c0,0,0,0,0,0V11.7L9.3,11.7z"/>
                <polygon class="acsb-l-pt4" points="9.7,11.9 9.7,12.2 9.4,12.2 9.4,11.9 9.7,11.9 			"/>
                <polygon class="acsb-l-pt22" points="9.7,11.9 9.7,12.2 9.4,12.2 9.4,11.9 9.7,11.9 			"/>
                <path class="acsb-l-pt4" d="M9.6,13c0-0.5,0.3-0.6,0.3-0.6c0,0,0.4,0.1,0.4,0.6L9.6,13L9.6,13z"/>
                <path class="acsb-l-pt4"
                      d="M9.3,12.4L9.3,13l0.3,0c0-0.4,0.3-0.5,0.3-0.5c0,0,0.3,0.1,0.3,0.5h0.4l-0.1-0.5L9.3,12.4L9.3,12.4z"/>
                <path class="acsb-l-pt17"
                      d="M9.3,12.4L9.3,13l0.3,0c0-0.4,0.3-0.5,0.3-0.5c0,0,0.3,0.1,0.3,0.5h0.4l-0.1-0.5L9.3,12.4L9.3,12.4z"/>
                <path class="acsb-l-pt4" d="M9.3,13h1.4c0,0,0.1,0,0.1,0.1c0,0,0,0.1-0.1,0.1H9.3C9.2,13.1,9.2,13.1,9.3,13C9.2,13,9.2,13,9.3,13L9.3,13
				z"/>
                <path class="acsb-l-pt17" d="M9.3,13h1.4c0,0,0.1,0,0.1,0.1l0,0c0,0,0,0.1-0.1,0.1H9.3C9.2,13.1,9.2,13.1,9.3,13L9.3,13
				C9.2,13,9.2,13,9.3,13z"/>
                <path class="acsb-l-pt4" d="M9.8,13c0-0.3,0.2-0.4,0.2-0.4c0,0,0.2,0.1,0.2,0.4H9.8L9.8,13z"/>
                <path class="acsb-l-pt18" d="M9.8,13c0-0.3,0.2-0.4,0.2-0.4c0,0,0.2,0.1,0.2,0.4H9.8L9.8,13z"/>
                <path class="acsb-l-pt4" d="M9.3,12.2h1.4c0,0,0.1,0,0.1,0.1c0,0,0,0.1-0.1,0.1H9.3C9.3,12.3,9.2,12.3,9.3,12.2
				C9.2,12.2,9.3,12.2,9.3,12.2L9.3,12.2z"/>
                <path class="acsb-l-pt19" d="M9.3,12.2h1.4c0,0,0.1,0,0.1,0.1l0,0c0,0,0,0.1-0.1,0.1H9.3C9.3,12.3,9.2,12.3,9.3,12.2L9.3,12.2
				C9.2,12.2,9.3,12.2,9.3,12.2z"/>
                <path class="acsb-l-pt4" d="M9.3,12.3h1.3c0,0,0.1,0,0.1,0.1c0,0,0,0.1-0.1,0.1H9.3C9.3,12.4,9.3,12.4,9.3,12.3
				C9.3,12.3,9.3,12.3,9.3,12.3L9.3,12.3z"/>
                <path class="acsb-l-pt19" d="M9.3,12.3h1.3c0,0,0.1,0,0.1,0.1l0,0c0,0,0,0.1-0.1,0.1H9.3C9.3,12.4,9.3,12.4,9.3,12.3L9.3,12.3
				C9.3,12.3,9.3,12.3,9.3,12.3z"/>
                <path class="acsb-l-pt10" d="M9.9,11.8C9.9,11.8,10,11.8,9.9,11.8L10,12H9.9V11.8L9.9,11.8z"/>
                <path class="acsb-l-pt10" d="M10.4,12C10.4,12,10.5,12,10.4,12l0.1,0.1h-0.1V12L10.4,12z"/>
                <path class="acsb-l-pt10" d="M9.5,12C9.5,12,9.6,12,9.5,12l0.1,0.1H9.5V12L9.5,12z"/>
                <path class="acsb-l-pt4"
                      d="M13.6,11.4h0.1v0.1h0.1v-0.1l0.1,0v0.1h0.1v-0.1H14v0.2c0,0,0,0,0,0h-0.4c0,0,0,0,0,0V11.4L13.6,11.4z"/>
                <path class="acsb-l-pt20" d="M13.6,11.4h0.1v0.1h0.1v-0.1l0.1,0v0.1h0.1v-0.1H14v0.2c0,0,0,0,0,0h-0.4c0,0,0,0,0,0L13.6,11.4L13.6,11.4z
				"/>
                <polygon class="acsb-l-pt4" points="14,11.7 14,12.2 13.6,12.2 13.6,11.7 14,11.7 			"/>
                <polygon class="acsb-l-pt19" points="14,11.7 14,12.2 13.6,12.2 13.6,11.7 14,11.7 			"/>
                <path class="acsb-l-pt4"
                      d="M14,11.7l0.1,0v0.1h0.1v-0.1l0.1,0v0.1h0.1v-0.1l0.1,0v0.2c0,0,0,0,0,0h-0.4c0,0,0,0,0,0L14,11.7L14,11.7z"
                />
                <path class="acsb-l-pt21"
                      d="M14,11.7l0.1,0v0.1h0.1v-0.1l0.1,0v0.1h0.1v-0.1h0.1v0.2c0,0,0,0,0,0h-0.4c0,0,0,0,0,0V11.7L14,11.7z"/>
                <polygon class="acsb-l-pt4" points="14.4,11.9 14.4,12.2 14.1,12.2 14.1,11.9 14.4,11.9 			"/>
                <polygon class="acsb-l-pt22" points="14.4,11.9 14.4,12.2 14.1,12.2 14.1,11.9 14.4,11.9 			"/>
                <path class="acsb-l-pt4" d="M13.1,11.7h0.1v0.1h0.1v-0.1h0.1v0.1h0.1v-0.1h0.1l0,0.2c0,0,0,0,0,0h-0.4c0,0,0,0,0,0L13.1,11.7L13.1,11.7z
				"/>
                <path class="acsb-l-pt21"
                      d="M13.1,11.7h0.1v0.1h0.1v-0.1h0.1v0.1h0.1v-0.1h0.1v0.2c0,0,0,0,0,0h-0.4c0,0,0,0,0,0V11.7L13.1,11.7z"/>
                <polygon class="acsb-l-pt4" points="13.5,11.9 13.5,12.2 13.2,12.2 13.2,11.9 13.5,11.9 			"/>
                <polygon class="acsb-l-pt22" points="13.5,11.9 13.5,12.2 13.2,12.2 13.2,11.9 13.5,11.9 			"/>
                <path class="acsb-l-pt4" d="M13.4,13c0-0.5,0.3-0.6,0.3-0.6c0,0,0.4,0.1,0.4,0.6L13.4,13L13.4,13z"/>
                <path class="acsb-l-pt4"
                      d="M13.2,12.4L13.1,13l0.3,0c0-0.4,0.3-0.5,0.3-0.5c0,0,0.3,0.1,0.3,0.5h0.4l-0.1-0.5L13.2,12.4L13.2,12.4z"/>
                <path class="acsb-l-pt17"
                      d="M13.2,12.4L13.1,13l0.3,0c0-0.4,0.3-0.5,0.3-0.5c0,0,0.3,0.1,0.3,0.5h0.4l-0.1-0.5L13.2,12.4L13.2,12.4z"/>
                <path class="acsb-l-pt4"
                      d="M13.1,13h1.4c0,0,0.1,0,0.1,0.1s0,0.1-0.1,0.1h-1.4C13,13.1,13,13.1,13.1,13C13,13,13,13,13.1,13L13.1,13z"
                />
                <path class="acsb-l-pt17" d="M13.1,13h1.4c0,0,0.1,0,0.1,0.1l0,0c0,0,0,0.1-0.1,0.1h-1.4C13,13.1,13,13.1,13.1,13L13.1,13
				C13,13,13,13,13.1,13z"/>
                <path class="acsb-l-pt4" d="M13.6,13c0-0.3,0.2-0.4,0.2-0.4c0,0,0.2,0.1,0.2,0.4H13.6L13.6,13z"/>
                <path class="acsb-l-pt18" d="M13.6,13c0-0.3,0.2-0.4,0.2-0.4S14,12.7,14,13H13.6L13.6,13z"/>
                <path class="acsb-l-pt4" d="M13.1,12.2h1.4c0,0,0.1,0,0.1,0.1c0,0,0,0.1-0.1,0.1h-1.4C13.1,12.3,13.1,12.3,13.1,12.2
				C13.1,12.2,13.1,12.2,13.1,12.2L13.1,12.2z"/>
                <path class="acsb-l-pt19" d="M13.1,12.2h1.4c0,0,0.1,0,0.1,0.1l0,0c0,0,0,0.1-0.1,0.1h-1.4C13.1,12.3,13.1,12.3,13.1,12.2L13.1,12.2
				C13.1,12.2,13.1,12.2,13.1,12.2z"/>
                <path class="acsb-l-pt4" d="M13.1,12.3h1.3c0,0,0,0,0,0.1c0,0,0,0.1,0,0.1h-1.3C13.1,12.4,13.1,12.4,13.1,12.3
				C13.1,12.3,13.1,12.3,13.1,12.3L13.1,12.3z"/>
                <path class="acsb-l-pt19" d="M13.1,12.3h1.3c0,0,0,0,0,0.1l0,0c0,0,0,0.1,0,0.1h-1.3C13.1,12.4,13.1,12.4,13.1,12.3L13.1,12.3
				C13.1,12.3,13.1,12.3,13.1,12.3z"/>
                <path class="acsb-l-pt10" d="M13.8,11.8C13.8,11.8,13.8,11.8,13.8,11.8l0.1,0.1h-0.1V11.8L13.8,11.8z"/>
                <path class="acsb-l-pt10" d="M14.2,12C14.2,12,14.3,12,14.2,12l0.1,0.1h-0.1V12L14.2,12z"/>
                <path class="acsb-l-pt10" d="M13.3,12C13.3,12,13.4,12,13.3,12l0.1,0.1h-0.1V12L13.3,12z"/>
                <path class="acsb-l-pt4"
                      d="M5.9,15.3l0.1,0v0.1h0.1v-0.1h0.1v0.1h0.1v-0.1h0.1v0.2c0,0,0,0,0,0H5.9c0,0,0,0,0,0L5.9,15.3L5.9,15.3z"/>
                <path class="acsb-l-pt23"
                      d="M5.9,15.3H6v0.1h0.1v-0.1l0.1,0v0.1h0.1v-0.1h0.1v0.2c0,0,0,0,0,0H5.9c0,0,0,0,0,0L5.9,15.3L5.9,15.3z"/>
                <polygon class="acsb-l-pt4" points="6.3,15.6 6.3,16.1 5.9,16.1 6,15.6 6.3,15.6 			"/>
                <polygon class="acsb-l-pt24" points="6.3,15.6 6.3,16.1 5.9,16.1 6,15.6 6.3,15.6 			"/>
                <path class="acsb-l-pt4"
                      d="M6.3,15.6h0.1v0.1h0.1v-0.1l0.1,0v0.1h0.1v-0.1h0.1v0.2c0,0,0,0,0,0H6.4c0,0,0,0,0,0L6.3,15.6L6.3,15.6z"/>
                <path class="acsb-l-pt25"
                      d="M6.3,15.6h0.1v0.1h0.1v-0.1l0.1,0v0.1h0.1v-0.1h0.1v0.2c0,0,0,0,0,0H6.4c0,0,0,0,0,0L6.3,15.6L6.3,15.6z"/>
                <polygon class="acsb-l-pt4" points="6.7,15.8 6.7,16.1 6.4,16.1 6.4,15.8 6.7,15.8 			"/>
                <polygon class="acsb-l-pt26" points="6.7,15.8 6.7,16.1 6.4,16.1 6.4,15.8 6.7,15.8 			"/>
                <path class="acsb-l-pt4"
                      d="M5.4,15.6l0.1,0v0.1h0.1v-0.1l0.1,0v0.1h0.1v-0.1h0.1v0.2c0,0,0,0,0,0H5.5c0,0,0,0,0,0V15.6L5.4,15.6z"/>
                <path class="acsb-l-pt25"
                      d="M5.4,15.6l0.1,0v0.1h0.1v-0.1h0.1v0.1h0.1v-0.1h0.1v0.2c0,0,0,0,0,0H5.5c0,0,0,0,0,0V15.6L5.4,15.6z"/>
                <polygon class="acsb-l-pt4" points="5.8,15.8 5.9,16.1 5.5,16.1 5.5,15.8 5.8,15.8 			"/>
                <polygon class="acsb-l-pt26" points="5.8,15.8 5.9,16.1 5.5,16.1 5.5,15.8 5.8,15.8 			"/>
                <path class="acsb-l-pt4" d="M5.8,16.9c0-0.5,0.3-0.6,0.3-0.6c0,0,0.4,0.1,0.4,0.6L5.8,16.9L5.8,16.9z"/>
                <path class="acsb-l-pt4"
                      d="M5.5,16.3l-0.1,0.5l0.3,0c0-0.4,0.3-0.5,0.3-0.5c0,0,0.3,0.1,0.3,0.5h0.4l-0.1-0.5L5.5,16.3L5.5,16.3z"/>
                <path class="acsb-l-pt27"
                      d="M5.5,16.3l-0.1,0.5l0.3,0c0-0.4,0.3-0.5,0.3-0.5c0,0,0.3,0.1,0.3,0.5h0.4l-0.1-0.5L5.5,16.3L5.5,16.3z"/>
                <path class="acsb-l-pt4" d="M5.4,16.9h1.4c0,0,0.1,0,0.1,0.1c0,0,0,0.1-0.1,0.1H5.4C5.4,17,5.4,17,5.4,16.9C5.4,16.9,5.4,16.9,5.4,16.9
				L5.4,16.9z"/>
                <path class="acsb-l-pt27" d="M5.4,16.9h1.4c0,0,0.1,0,0.1,0.1l0,0c0,0,0,0.1-0.1,0.1H5.4C5.4,17,5.4,17,5.4,16.9L5.4,16.9
				C5.4,16.9,5.4,16.9,5.4,16.9z"/>
                <path class="acsb-l-pt4" d="M5.9,16.9c0-0.3,0.2-0.4,0.2-0.4c0,0,0.2,0.1,0.2,0.4H5.9L5.9,16.9z"/>
                <path class="acsb-l-pt28" d="M5.9,16.9c0-0.3,0.2-0.4,0.2-0.4c0,0,0.2,0.1,0.2,0.4H5.9L5.9,16.9z"/>
                <path class="acsb-l-pt4" d="M5.4,16.1h1.4c0,0,0.1,0,0.1,0.1c0,0,0,0.1-0.1,0.1H5.4C5.4,16.2,5.4,16.2,5.4,16.1
				C5.4,16.1,5.4,16.1,5.4,16.1L5.4,16.1z"/>
                <path class="acsb-l-pt24" d="M5.4,16.1h1.4c0,0,0.1,0,0.1,0.1l0,0c0,0,0,0.1-0.1,0.1H5.4C5.4,16.2,5.4,16.2,5.4,16.1L5.4,16.1
				C5.4,16.1,5.4,16.1,5.4,16.1z"/>
                <path class="acsb-l-pt4" d="M5.5,16.2h1.3c0,0,0.1,0,0.1,0.1c0,0,0,0.1-0.1,0.1H5.5C5.4,16.3,5.4,16.3,5.5,16.2
				C5.4,16.2,5.4,16.2,5.5,16.2L5.5,16.2z"/>
                <path class="acsb-l-pt24" d="M5.5,16.2h1.3c0,0,0.1,0,0.1,0.1l0,0c0,0,0,0.1-0.1,0.1H5.5C5.4,16.3,5.4,16.3,5.5,16.2L5.5,16.2
				C5.4,16.2,5.4,16.2,5.5,16.2z"/>
                <path class="acsb-l-pt10" d="M6.1,15.7C6.1,15.7,6.2,15.7,6.1,15.7l0.1,0.1H6.1V15.7L6.1,15.7z"/>
                <path class="acsb-l-pt10" d="M6.5,15.9C6.5,15.9,6.6,15.9,6.5,15.9L6.6,16H6.5V15.9L6.5,15.9z"/>
                <path class="acsb-l-pt10" d="M5.6,15.9C5.6,15.9,5.7,15.9,5.6,15.9L5.7,16H5.6V15.9L5.6,15.9z"/>
                <path class="acsb-l-pt4" d="M13.3,19.5L13.3,19.5l0,0.1l0.1,0.1l0.1-0.1l0.1,0.1l-0.1,0.1l0.1,0.1l0.1-0.1l0.1,0.1l-0.1,0.1
				c0,0,0,0-0.1,0l-0.3-0.3c0,0,0,0,0-0.1L13.3,19.5L13.3,19.5z"/>
                <path class="acsb-l-pt20" d="M13.3,19.5L13.3,19.5l0,0.1l0.1,0.1l0.1-0.1l0.1,0.1l-0.1,0.1l0.1,0.1l0.1-0.1l0.1,0.1l-0.1,0.1
				c0,0,0,0-0.1,0l-0.3-0.3c0,0,0,0,0-0.1L13.3,19.5L13.3,19.5z"/>
                <polygon class="acsb-l-pt4" points="13.5,19.9 13.1,20.3 12.8,20 13.2,19.7 13.5,19.9 			"/>
                <polygon class="acsb-l-pt29" points="13.5,19.9 13.1,20.3 12.8,20 13.2,19.7 13.5,19.9 			"/>
                <path class="acsb-l-pt4" d="M13.5,20L13.5,20l0,0.1l0.1,0.1l0.1-0.1l0.1,0.1l-0.1,0.1l0.1,0.1l0.1-0.1l0.1,0.1l-0.1,0.1c0,0,0,0-0.1,0
				l-0.3-0.3c0,0,0,0,0-0.1L13.5,20L13.5,20z"/>
                <path class="acsb-l-pt30" d="M13.5,20L13.5,20l0,0.1l0.1,0.1l0.1-0.1l0.1,0.1l-0.1,0.1l0.1,0.1l0.1-0.1l0.1,0.1l-0.1,0.1c0,0,0,0-0.1,0
				l-0.3-0.3c0,0,0,0,0-0.1L13.5,20L13.5,20z"/>
                <polygon class="acsb-l-pt4" points="13.6,20.4 13.4,20.6 13.1,20.4 13.4,20.2 13.6,20.4 			"/>
                <polygon class="acsb-l-pt22" points="13.6,20.4 13.4,20.6 13.1,20.4 13.4,20.2 13.6,20.4 			"/>
                <path class="acsb-l-pt4" d="M12.8,19.3L12.8,19.3l0,0.1l0.1,0.1l0.1-0.1l0.1,0.1L13,19.6l0.1,0.1l0.1-0.1l0.1,0.1L13,19.8c0,0,0,0-0.1,0
				l-0.3-0.3c0,0,0,0,0-0.1L12.8,19.3L12.8,19.3z"/>
                <path class="acsb-l-pt30" d="M12.8,19.3L12.8,19.3l0,0.1l0.1,0.1l0.1-0.1l0.1,0.1L13,19.6l0.1,0.1l0.1-0.1l0.1,0.1L13,19.8
				c0,0,0,0-0.1,0l-0.3-0.3c0,0,0,0,0-0.1L12.8,19.3L12.8,19.3z"/>
                <polygon class="acsb-l-pt4" points="13,19.8 12.8,20 12.5,19.7 12.7,19.5 13,19.8 			"/>
                <polygon class="acsb-l-pt22" points="13,19.8 12.8,20 12.5,19.7 12.7,19.5 13,19.8 			"/>
                <path class="acsb-l-pt4"
                      d="M12.1,20.5c0.3-0.3,0.6-0.2,0.7-0.2c0,0,0.2,0.3-0.2,0.7L12.1,20.5L12.1,20.5z"/>
                <path class="acsb-l-pt4" d="M12.3,19.9l-0.4,0.3l0.2,0.2c0.3-0.3,0.6-0.1,0.6-0.1c0,0,0.2,0.3-0.1,0.6l0.2,0.2l0.3-0.4L12.3,19.9
				L12.3,19.9z"/>
                <path class="acsb-l-pt31" d="M12.3,19.9l-0.4,0.3l0.2,0.2c0.3-0.3,0.6-0.1,0.6-0.1c0,0,0.2,0.3-0.1,0.6l0.2,0.2l0.3-0.4L12.3,19.9
				L12.3,19.9z"/>
                <path class="acsb-l-pt4" d="M11.9,20.2l1,1c0,0,0,0.1,0,0.1c0,0-0.1,0-0.1,0L11.9,20.2C11.8,20.3,11.8,20.2,11.9,20.2
				C11.9,20.2,11.9,20.2,11.9,20.2L11.9,20.2z"/>
                <path class="acsb-l-pt32" d="M11.9,20.2l1,1c0,0,0,0.1,0,0.1l0,0c0,0-0.1,0-0.1,0L11.9,20.2C11.8,20.3,11.8,20.2,11.9,20.2L11.9,20.2
				C11.9,20.2,11.9,20.2,11.9,20.2z"/>
                <path class="acsb-l-pt4"
                      d="M12.3,20.6c0.2-0.2,0.4-0.1,0.4-0.1c0,0,0.1,0.2-0.1,0.4L12.3,20.6L12.3,20.6z"/>
                <path class="acsb-l-pt33"
                      d="M12.3,20.6c0.2-0.2,0.4-0.1,0.4-0.1c0,0,0.1,0.2-0.1,0.4L12.3,20.6L12.3,20.6z"/>
                <path class="acsb-l-pt4" d="M12.5,19.7l1,1c0,0,0,0.1,0,0.1c0,0-0.1,0-0.1,0L12.5,19.7C12.4,19.7,12.4,19.7,12.5,19.7
				C12.4,19.7,12.4,19.7,12.5,19.7L12.5,19.7z"/>
                <path class="acsb-l-pt19" d="M12.5,19.7l1,1c0,0,0,0.1,0,0.1l0,0c0,0-0.1,0-0.1,0L12.5,19.7C12.4,19.7,12.4,19.7,12.5,19.7L12.5,19.7
				C12.4,19.7,12.4,19.7,12.5,19.7L12.5,19.7z"/>
                <path class="acsb-l-pt4" d="M12.4,19.8l0.9,0.9c0,0,0,0.1,0,0.1c0,0-0.1,0-0.1,0L12.4,19.8C12.3,19.8,12.3,19.8,12.4,19.8
				C12.4,19.8,12.4,19.8,12.4,19.8L12.4,19.8z"/>
                <path class="acsb-l-pt19" d="M12.4,19.8l0.9,0.9c0,0,0,0.1,0,0.1l0,0c0,0-0.1,0-0.1,0L12.4,19.8C12.3,19.8,12.3,19.8,12.4,19.8
				L12.4,19.8C12.4,19.8,12.4,19.8,12.4,19.8L12.4,19.8z"/>
                <path class="acsb-l-pt10"
                      d="M13.2,19.9C13.2,19.8,13.3,19.9,13.2,19.9l0,0.1L13.2,19.9L13.2,19.9L13.2,19.9z"/>
                <path class="acsb-l-pt10"
                      d="M13.4,20.3C13.4,20.3,13.5,20.3,13.4,20.3l0,0.1L13.4,20.3L13.4,20.3L13.4,20.3z"/>
                <path class="acsb-l-pt10"
                      d="M12.7,19.7C12.8,19.6,12.8,19.7,12.7,19.7l0,0.1L12.7,19.7L12.7,19.7L12.7,19.7z"/>
                <path class="acsb-l-pt4"
                      d="M13.6,15.3l0.1,0v0.1h0.1v-0.1h0.1v0.1h0.1v-0.1H14l0,0.2c0,0,0,0,0,0h-0.4c0,0,0,0,0,0V15.3L13.6,15.3z"/>
                <path class="acsb-l-pt20"
                      d="M13.6,15.3l0.1,0v0.1h0.1v-0.1h0.1v0.1h0.1v-0.1H14l0,0.2c0,0,0,0,0,0h-0.4c0,0,0,0,0,0V15.3L13.6,15.3z"/>
                <polygon class="acsb-l-pt4" points="13.9,15.6 14,16.1 13.6,16.1 13.6,15.6 13.9,15.6 			"/>
                <polygon class="acsb-l-pt19" points="13.9,15.6 14,16.1 13.6,16.1 13.6,15.6 13.9,15.6 			"/>
                <path class="acsb-l-pt4"
                      d="M14,15.6l0.1,0v0.1h0.1v-0.1l0.1,0v0.1h0.1v-0.1l0.1,0v0.2c0,0,0,0,0,0h-0.4c0,0,0,0,0,0V15.6L14,15.6z"/>
                <path class="acsb-l-pt21"
                      d="M14,15.6l0.1,0v0.1h0.1v-0.1h0.1v0.1h0.1v-0.1h0.1v0.2c0,0,0,0,0,0h-0.4c0,0,0,0,0,0V15.6L14,15.6z"/>
                <polygon class="acsb-l-pt4" points="14.4,15.8 14.4,16.1 14.1,16.1 14.1,15.8 14.4,15.8 			"/>
                <polygon class="acsb-l-pt22" points="14.4,15.8 14.4,16.1 14.1,16.1 14.1,15.8 14.4,15.8 			"/>
                <path class="acsb-l-pt4"
                      d="M13.1,15.6h0.1v0.1h0.1v-0.1l0.1,0v0.1h0.1v-0.1h0.1v0.2c0,0,0,0,0,0h-0.4c0,0,0,0,0,0V15.6L13.1,15.6z"/>
                <path class="acsb-l-pt21" d="M13.1,15.6h0.1v0.1h0.1v-0.1l0.1,0v0.1h0.1v-0.1h0.1v0.2c0,0,0,0,0,0h-0.4c0,0,0,0,0,0L13.1,15.6L13.1,15.6
				z"/>
                <polygon class="acsb-l-pt4" points="13.5,15.8 13.5,16.1 13.2,16.1 13.2,15.8 13.5,15.8 			"/>
                <polygon class="acsb-l-pt22" points="13.5,15.8 13.5,16.1 13.2,16.1 13.2,15.8 13.5,15.8 			"/>
                <path class="acsb-l-pt4" d="M13.4,16.9c0-0.5,0.3-0.6,0.3-0.6c0,0,0.4,0.1,0.4,0.6L13.4,16.9L13.4,16.9z"/>
                <path class="acsb-l-pt4"
                      d="M13.2,16.3l-0.1,0.5l0.3,0c0-0.4,0.3-0.5,0.3-0.5c0,0,0.3,0.1,0.3,0.5h0.4l-0.1-0.5L13.2,16.3L13.2,16.3z"/>
                <path class="acsb-l-pt17"
                      d="M13.2,16.3l-0.1,0.5l0.3,0c0-0.4,0.3-0.5,0.3-0.5c0,0,0.3,0.1,0.3,0.5h0.4l-0.1-0.5L13.2,16.3L13.2,16.3z"
                />
                <path class="acsb-l-pt4" d="M13.1,16.9h1.4c0,0,0.1,0,0.1,0.1c0,0,0,0.1-0.1,0.1h-1.4C13,17,13,17,13.1,16.9C13,16.9,13,16.9,13.1,16.9
				L13.1,16.9z"/>
                <path class="acsb-l-pt17" d="M13.1,16.9h1.4c0,0,0.1,0,0.1,0.1l0,0c0,0,0,0.1-0.1,0.1h-1.4C13,17,13,17,13.1,16.9L13.1,16.9
				C13,16.9,13,16.9,13.1,16.9z"/>
                <path class="acsb-l-pt4" d="M13.6,16.9c0-0.3,0.2-0.4,0.2-0.4c0,0,0.2,0.1,0.2,0.4H13.6L13.6,16.9z"/>
                <path class="acsb-l-pt18" d="M13.6,16.9c0-0.3,0.2-0.4,0.2-0.4c0,0,0.2,0.1,0.2,0.4H13.6L13.6,16.9z"/>
                <path class="acsb-l-pt4" d="M13.1,16.1h1.4c0,0,0.1,0,0.1,0.1c0,0,0,0.1-0.1,0.1h-1.4C13.1,16.2,13.1,16.2,13.1,16.1
				C13.1,16.1,13.1,16.1,13.1,16.1L13.1,16.1z"/>
                <path class="acsb-l-pt19" d="M13.1,16.1h1.4c0,0,0.1,0,0.1,0.1l0,0c0,0,0,0.1-0.1,0.1h-1.4C13.1,16.2,13.1,16.2,13.1,16.1L13.1,16.1
				C13.1,16.1,13.1,16.1,13.1,16.1z"/>
                <path class="acsb-l-pt4" d="M13.1,16.2h1.3c0,0,0.1,0,0.1,0.1c0,0,0,0.1-0.1,0.1h-1.3C13.1,16.3,13.1,16.3,13.1,16.2
				C13.1,16.2,13.1,16.2,13.1,16.2L13.1,16.2z"/>
                <path class="acsb-l-pt19" d="M13.1,16.2h1.3c0,0,0.1,0,0.1,0.1l0,0c0,0,0,0.1-0.1,0.1h-1.3C13.1,16.3,13.1,16.3,13.1,16.2L13.1,16.2
				C13.1,16.2,13.1,16.2,13.1,16.2z"/>
                <path class="acsb-l-pt10" d="M13.8,15.7C13.7,15.7,13.8,15.7,13.8,15.7l0.1,0.1h-0.1V15.7L13.8,15.7z"/>
                <path class="acsb-l-pt10" d="M14.2,15.9C14.2,15.9,14.3,15.9,14.2,15.9l0.1,0.1h-0.1V15.9L14.2,15.9z"/>
                <path class="acsb-l-pt10" d="M13.3,15.9C13.3,15.9,13.4,15.9,13.3,15.9l0.1,0.1h-0.1V15.9L13.3,15.9z"/>
                <path class="acsb-l-pt4" d="M6.3,19.8L6.3,19.8l0.1,0l0.1-0.1l-0.1-0.1l0.1-0.1l0.1,0.1l0.1-0.1l-0.1-0.1l0.1-0.1l0.1,0.1c0,0,0,0,0,0.1
				l-0.3,0.3c0,0,0,0-0.1,0L6.3,19.8L6.3,19.8z"/>
                <path class="acsb-l-pt21" d="M6.3,19.8L6.3,19.8l0.1,0l0.1-0.1l-0.1-0.1l0.1-0.1l0.1,0.1l0.1-0.1l-0.1-0.1l0.1-0.1l0.1,0.1
				c0,0,0,0,0,0.1l-0.3,0.3c0,0,0,0-0.1,0L6.3,19.8L6.3,19.8z"/>
                <polygon class="acsb-l-pt4" points="6.7,19.7 7.1,20 6.9,20.3 6.5,19.9 6.7,19.7 			"/>
                <polygon class="acsb-l-pt19" points="6.7,19.7 7.1,20 6.9,20.3 6.5,19.9 6.7,19.7 			"/>
                <path class="acsb-l-pt4" d="M6.8,19.6L6.8,19.6l0.1,0L7,19.6l-0.1-0.1L7,19.4L7,19.5l0.1-0.1L7,19.4l0.1-0.1l0.1,0.1c0,0,0,0,0,0.1
				L7,19.8c0,0,0,0-0.1,0L6.8,19.6L6.8,19.6z"/>
                <path class="acsb-l-pt34" d="M6.8,19.6L6.8,19.6l0.1,0L7,19.6l-0.1-0.1L7,19.4L7,19.5l0.1-0.1L7,19.4l0.1-0.1l0.1,0.1c0,0,0,0,0,0.1
				L7,19.8c0,0,0,0-0.1,0L6.8,19.6L6.8,19.6z"/>
                <polygon class="acsb-l-pt4" points="7.2,19.5 7.4,19.7 7.2,20 7,19.7 7.2,19.5 			"/>
                <polygon class="acsb-l-pt22" points="7.2,19.5 7.4,19.7 7.2,20 7,19.7 7.2,19.5 			"/>
                <path class="acsb-l-pt4" d="M6.1,20.3L6.1,20.3l0.1,0l0.1-0.1l-0.1-0.1l0.1-0.1l0.1,0.1l0.1-0.1L6.4,20L6.5,20l0.1,0.1c0,0,0,0,0,0.1
				l-0.3,0.3c0,0,0,0-0.1,0L6.1,20.3L6.1,20.3z"/>
                <path class="acsb-l-pt34" d="M6.1,20.3L6.1,20.3l0.1,0l0.1-0.1l-0.1-0.1l0.1-0.1l0.1,0.1l0.1-0.1L6.4,20L6.5,20l0.1,0.1c0,0,0,0,0,0.1
				l-0.3,0.3c0,0,0,0-0.1,0L6.1,20.3L6.1,20.3z"/>
                <polygon class="acsb-l-pt4" points="6.6,20.1 6.8,20.3 6.5,20.6 6.3,20.4 6.6,20.1 			"/>
                <polygon class="acsb-l-pt22" points="6.6,20.1 6.8,20.3 6.5,20.6 6.3,20.4 6.6,20.1 			"/>
                <path class="acsb-l-pt4" d="M7.3,21c-0.3-0.3-0.2-0.6-0.2-0.7c0,0,0.3-0.2,0.7,0.2L7.3,21L7.3,21z"/>
                <path class="acsb-l-pt4" d="M6.7,20.8L7,21.2l0.2-0.2c-0.3-0.3-0.1-0.6-0.1-0.6c0,0,0.3-0.2,0.6,0.1L8,20.2l-0.4-0.3L6.7,20.8L6.7,20.8z
				"/>
                <path class="acsb-l-pt31" d="M6.7,20.8L7,21.2l0.2-0.2c-0.3-0.3-0.1-0.6-0.1-0.6c0,0,0.3-0.2,0.6,0.1L8,20.2l-0.4-0.3L6.7,20.8L6.7,20.8
				z"/>
                <path class="acsb-l-pt4"
                      d="M7,21.2l1-1c0,0,0.1,0,0.1,0c0,0,0,0.1,0,0.1L7,21.2C7.1,21.3,7,21.3,7,21.2C7,21.3,7,21.2,7,21.2L7,21.2z"
                />
                <path class="acsb-l-pt17" d="M7,21.2l1-1c0,0,0.1,0,0.1,0l0,0c0,0,0,0.1,0,0.1L7,21.2C7.1,21.3,7,21.3,7,21.2L7,21.2
				C7,21.3,7,21.2,7,21.2z"/>
                <path class="acsb-l-pt4" d="M7.4,20.8c-0.2-0.2-0.1-0.4-0.1-0.4c0,0,0.2-0.1,0.4,0.1L7.4,20.8L7.4,20.8z"/>
                <path class="acsb-l-pt35"
                      d="M7.4,20.8c-0.2-0.2-0.1-0.4-0.1-0.4c0,0,0.2-0.1,0.4,0.1L7.4,20.8L7.4,20.8z"/>
                <path class="acsb-l-pt4" d="M6.5,20.6l1-1c0,0,0.1,0,0.1,0c0,0,0,0.1,0,0.1L6.5,20.6C6.6,20.7,6.5,20.7,6.5,20.6
				C6.5,20.7,6.5,20.7,6.5,20.6L6.5,20.6z"/>
                <path class="acsb-l-pt19" d="M6.5,20.6l1-1c0,0,0.1,0,0.1,0l0,0c0,0,0,0.1,0,0.1L6.5,20.6C6.6,20.7,6.5,20.7,6.5,20.6L6.5,20.6
				C6.5,20.7,6.5,20.7,6.5,20.6z"/>
                <path class="acsb-l-pt4" d="M6.6,20.7l0.9-0.9c0,0,0.1,0,0.1,0c0,0,0,0.1,0,0.1L6.6,20.7C6.7,20.8,6.6,20.8,6.6,20.7
				C6.6,20.8,6.6,20.7,6.6,20.7L6.6,20.7z"/>
                <path class="acsb-l-pt19" d="M6.6,20.7l0.9-0.9c0,0,0.1,0,0.1,0l0,0c0,0,0,0.1,0,0.1L6.6,20.7C6.7,20.8,6.6,20.8,6.6,20.7L6.6,20.7
				C6.6,20.8,6.6,20.7,6.6,20.7z"/>
                <path class="acsb-l-pt10" d="M6.7,19.9C6.7,19.9,6.7,19.8,6.7,19.9l0.1,0L6.7,19.9L6.7,19.9L6.7,19.9z"/>
                <path class="acsb-l-pt10" d="M7.1,19.7C7.1,19.7,7.2,19.6,7.1,19.7l0.1,0L7.1,19.7L7.1,19.7L7.1,19.7z"/>
                <path class="acsb-l-pt10" d="M6.5,20.4C6.5,20.3,6.5,20.3,6.5,20.4l0.1,0L6.5,20.4L6.5,20.4L6.5,20.4z"/>
		</g>
	</g>
</g>
</svg>
