<svg version="1.1" xmlns="http://www.w3.org/2000/svg" xmlns:xlink="http://www.w3.org/1999/xlink" x="0px" y="0px"
     viewBox="0 0 50 33.5" style="enable-background:new 0 0 50 33.5;" xml:space="preserve">
<g>
	<polygon style="fill:#ED2F31;" points="25,16.8 0,16.8 0,33.5 50,33.5 50,0 25,0 	"/>
    <path style="fill:#2B3187;" d="M25,0H0v16.8h25V0z M17.9,11.5L15,10.7c-0.1,0.1-0.2,0.2-0.3,0.3l0.8,2.8l-2.1-2.1c-0.1,0-0.2,0.1-0.3,0.1
		l-0.8,2.8l-0.8-2.8c-0.1,0-0.2-0.1-0.3-0.1l-2.1,2.1L10,11c-0.1-0.1-0.2-0.2-0.3-0.3l-2.8,0.8L9,9.4c0-0.1-0.1-0.2-0.1-0.3L6.1,8.3
		l2.8-0.8C8.9,7.5,9,7.4,9,7.2L6.9,5.2l2.8,0.8C9.8,5.9,9.9,5.8,10,5.7L9.2,2.9l2.1,2.1c0.1,0,0.2-0.1,0.3-0.1L12.4,2l0.8,2.8
		c0.1,0,0.2,0.1,0.3,0.1l2.1-2.1l-0.8,2.8C14.9,5.8,15,5.9,15,5.9l2.8-0.8l-2.1,2.1c0,0.1,0.1,0.2,0.1,0.3l2.8,0.8l-2.8,0.8
		c0,0.1-0.1,0.2-0.1,0.3L17.9,11.5z"/>
    <path style="fill:#FFFFFF;" d="M11.6,11.8l0.8,2.8l0.8-2.8c-0.2,0.1-0.5,0.1-0.8,0.1S11.9,11.9,11.6,11.8z"/>
    <path style="fill:#FFFFFF;" d="M8.9,7.6L6.1,8.3l2.8,0.8C8.8,8.9,8.8,8.6,8.8,8.3S8.8,7.8,8.9,7.6z"/>
    <path style="fill:#FFFFFF;" d="M13.1,4.9L12.4,2l-0.8,2.8c0.2-0.1,0.5-0.1,0.8-0.1S12.9,4.8,13.1,4.9z"/>
    <path style="fill:#FFFFFF;" d="M15.9,9.1l2.8-0.8l-2.8-0.8C15.9,7.8,16,8.1,16,8.3S15.9,8.9,15.9,9.1z"/>
    <path style="fill:#FFFFFF;" d="M9.2,13.8l2.1-2.1c-0.5-0.2-0.9-0.4-1.3-0.8L9.2,13.8z"/>
    <path style="fill:#FFFFFF;" d="M6.9,5.2L9,7.2c0.2-0.5,0.4-0.9,0.8-1.3L6.9,5.2z"/>
    <path style="fill:#FFFFFF;" d="M17.9,11.5l-2.1-2.1c-0.2,0.5-0.4,0.9-0.8,1.3L17.9,11.5z"/>
    <path style="fill:#FFFFFF;" d="M15.5,2.9l-2.1,2.1c0.5,0.2,0.9,0.4,1.3,0.8L15.5,2.9z"/>
    <path style="fill:#FFFFFF;" d="M6.9,11.5l2.8-0.8C9.4,10.4,9.1,9.9,9,9.4L6.9,11.5z"/>
    <path style="fill:#FFFFFF;" d="M15.5,13.8L14.8,11c-0.4,0.3-0.8,0.6-1.3,0.8L15.5,13.8z"/>
    <path style="fill:#FFFFFF;" d="M9.2,2.9L10,5.7c0.4-0.3,0.8-0.6,1.3-0.8L9.2,2.9z"/>
    <path style="fill:#FFFFFF;" d="M17.9,5.2L15,5.9c0.3,0.4,0.6,0.8,0.8,1.3L17.9,5.2z"/>
    <path style="fill:#2B3187;" d="M16,8.3c0-0.3,0-0.5-0.1-0.8c0-0.1-0.1-0.2-0.1-0.3c-0.2-0.5-0.4-0.9-0.8-1.3c-0.1-0.1-0.2-0.2-0.3-0.3
		c-0.4-0.3-0.8-0.6-1.3-0.8c-0.1,0-0.2-0.1-0.3-0.1c-0.2-0.1-0.5-0.1-0.8-0.1s-0.5,0-0.8,0.1c-0.1,0-0.2,0.1-0.3,0.1
		c-0.5,0.2-0.9,0.4-1.3,0.8C9.9,5.8,9.8,5.9,9.7,5.9C9.4,6.3,9.1,6.8,9,7.2c0,0.1-0.1,0.2-0.1,0.3C8.8,7.8,8.8,8.1,8.8,8.3
		s0,0.5,0.1,0.8C8.9,9.2,9,9.3,9,9.4c0.2,0.5,0.4,0.9,0.8,1.3c0.1,0.1,0.2,0.2,0.3,0.3c0.4,0.3,0.8,0.6,1.3,0.8
		c0.1,0,0.2,0.1,0.3,0.1c0.2,0.1,0.5,0.1,0.8,0.1s0.5,0,0.8-0.1c0.1,0,0.2-0.1,0.3-0.1c0.5-0.2,0.9-0.4,1.3-0.8
		c0.1-0.1,0.2-0.2,0.3-0.3c0.3-0.4,0.6-0.8,0.8-1.3c0-0.1,0.1-0.2,0.1-0.3C15.9,8.9,16,8.6,16,8.3z M9.2,8.3c0-1.7,1.4-3.2,3.2-3.2
		c1.7,0,3.2,1.4,3.2,3.2s-1.4,3.2-3.2,3.2C10.6,11.5,9.2,10.1,9.2,8.3z"/>
    <path style="fill:#FFFFFF;"
          d="M15.5,8.3c0-1.7-1.4-3.2-3.2-3.2c-1.7,0-3.2,1.4-3.2,3.2s1.4,3.2,3.2,3.2C14.1,11.5,15.5,10.1,15.5,8.3z"/>
</g>
</svg>
