<svg version="1.1" xmlns="http://www.w3.org/2000/svg" xmlns:xlink="http://www.w3.org/1999/xlink" x="0px" y="0px"
     viewBox="0 0 50 33.5" style="enable-background:new 0 0 50 33.5;" xml:space="preserve">
<g>
	<path style="fill:#FAFAFA;" d="M0,33.5h50V0H0V33.5z M25,6.7c5.6,0,10.1,4.5,10.1,10.1c0,5.6-4.5,10.1-10.1,10.1c-5.6,0-10.1-4.5-10.1-10.1
		C14.9,11.2,19.4,6.7,25,6.7z"/>
    <path style="fill:#BE262F;" d="M25,26.8c5.6,0,10.1-4.5,10.1-10.1c0-5.6-4.5-10.1-10.1-10.1c-5.6,0-10.1,4.5-10.1,10.1
		C14.9,22.3,19.4,26.8,25,26.8z"/>
</g>
    <g>
	<path style="fill:#DD342C;" d="M0,33.5h50V0H0V33.5z M16.9,16.7l-0.6-1L15.2,16l0.7-0.9L15.3,14l0.9,0.4l0.2,0.1l0.8-0.9l0,0l0,0l-0.1,1.3
		l1.1,0.4L17,15.5L16.9,16.7z M21,13l-1-0.7l-1,0.8l0.3-1.2l-1-0.7l1.2,0l0.3-1.2l0.4,1.1l1.2,0l-1,0.8L21,13z M19.2,5.2L20.1,6
		l1.1-0.5l-0.6,1.1l0.9,0.9l-1.2-0.2l-0.6,1.1l-0.2-1.2l-1.2-0.2l1.1-0.5L19.2,5.2z M15.3,2.2l1.1,0.5l0.8-0.9L17.1,3l1.1,0.5
		l-1.2,0.3L17,4.9l-0.6-1l-1.2,0.3L16,3.2L15.3,2.2z M8.2,3.3l1.1,3.5H13l-3,2.2l1.1,3.5l-3-2.2l-3,2.2l1.1-3.5l-3-2.2h3.7L8.2,3.3z
		"/>
        <polygon style="fill:#FFE533;"
                 points="13,6.8 9.3,6.8 8.2,3.3 7.1,6.8 3.4,6.8 6.4,8.9 5.2,12.4 8.2,10.3 11.2,12.4 10,8.9 	"/>
        <polygon style="fill:#FFE533;"
                 points="17.1,3 17.3,1.8 16.5,2.7 15.3,2.2 16,3.2 15.2,4.2 16.3,3.9 17,4.9 17.1,3.7 18.3,3.4 	"/>
        <polygon style="fill:#FFE533;"
                 points="20.6,6.6 21.2,5.5 20.1,6 19.2,5.2 19.4,6.4 18.3,6.9 19.5,7.1 19.7,8.3 20.2,7.2 21.4,7.4 	"/>
        <polygon style="fill:#FFE533;"
                 points="21.5,11.1 20.3,11.2 19.9,10 19.6,11.2 18.3,11.2 19.4,11.9 19,13.1 20,12.3 21,13 20.6,11.9 	"/>
        <polygon style="fill:#FFDE00;" points="17.1,14.7 17.2,13.5 17.2,13.5 17.2,13.5 16.4,14.4 16.2,14.3 15.3,14 15.9,15.1 15.2,16 16.3,15.7
		16.9,16.7 17,15.5 18.2,15.2 	"/>
</g>
</svg>
